<?xml version="1.0" encoding="utf-8"?>
<!-- Generator: Adobe Illustrator 16.0.0, SVG Export Plug-In . SVG Version: 6.00 Build 0)  -->
<!DOCTYPE svg PUBLIC "-//W3C//DTD SVG 1.1//EN" "http://www.w3.org/Graphics/SVG/1.1/DTD/svg11.dtd">
<svg version="1.1" id="图层_1" xmlns="http://www.w3.org/2000/svg" xmlns:xlink="http://www.w3.org/1999/xlink" x="0px" y="0px"
	 width="13.457px" height="14.504px" viewBox="0 0 13.457 14.504" enable-background="new 0 0 13.457 14.504" xml:space="preserve">
<path fill="#FFFFFF" d="M11.446,3.262c-0.958-1.25-2.649-1.767-4.164-1.717c-0.388,0.013-0.872-0.02-1.386-0.04
	c0.33-0.158,0.283-0.747-0.149-0.721c-1.658,0.1-3.271,1.09-4.266,2.425C0.274,4.828,0.33,7.17,0.622,9.117
	c0.258,1.713,0.987,3.277,2.661,3.829c1.072,0.354,1.728,1.159,2.92,1.193c1.103,0.031,2.029-0.165,3.04-0.6
	C13.359,11.768,13.931,6.504,11.446,3.262z M9.372,12.596c-1.864,1.309-3.585,0.727-5.368-0.191c-0.291-0.15-0.65-0.234-0.96-0.337
	c-0.926-0.306-1.349-1.926-1.62-2.704C1.059,8.322,1.197,5.93,1.389,4.835C1.509,4.148,2,3.493,2.641,2.949
	c0.163,0.14,0.436,0.166,0.582-0.071c0.559-0.9,2.601-0.597,3.438-0.579c1.132,0.024,2.934,0.274,3.839,1.049
	C13.558,5.97,12.279,10.558,9.372,12.596z"/>
</svg>
