<?xml version="1.0" encoding="utf-8"?>
<!-- Generator: Adobe Illustrator 16.0.0, SVG Export Plug-In . SVG Version: 6.00 Build 0)  -->
<!DOCTYPE svg PUBLIC "-//W3C//DTD SVG 1.1//EN" "http://www.w3.org/Graphics/SVG/1.1/DTD/svg11.dtd">
<svg version="1.1" id="图层_1" xmlns="http://www.w3.org/2000/svg" xmlns:xlink="http://www.w3.org/1999/xlink" x="0px" y="0px"
	 width="70.87px" height="30.298px" viewBox="0 0 70.87 30.298" enable-background="new 0 0 70.87 30.298" xml:space="preserve">
<path fill="#FFFFFF" d="M70.498,25.057c-0.541,0-1.111-0.037-1.677-0.04c-0.025-1.048-0.076-2.094-0.073-3.138
	c0.001-0.476,0.01-0.951,0.021-1.428c0.342-0.019,0.684-0.036,1.027-0.036c0.34,0,0.34-0.525,0-0.525
	c-0.339,0-0.674,0.017-1.01,0.035c0.037-1.18,0.092-2.362,0.122-3.541c0.216,0.011,0.433-0.007,0.648-0.009
	c0.199-0.002,0.389,0.09,0.589,0.099c0.34,0.016,0.339-0.51,0-0.525c-0.149-0.007-0.284-0.081-0.433-0.09
	c-0.213-0.014-0.424-0.004-0.637,0.002c-0.054,0.001-0.107-0.003-0.16-0.004c0.009-0.517,0.018-1.033,0.009-1.549
	c-0.012-0.848,0.033-1.707,0.065-2.564c0.211,0,0.422,0,0.633,0c0.134,0,0.397-0.081,0.514,0.011c0.262,0.209,0.636-0.16,0.37-0.372
	c-0.321-0.257-0.688-0.165-1.076-0.165c-0.143,0-0.284,0-0.427,0c0.006-0.189,0.013-0.379,0.014-0.567
	c0.01-1.114-0.258-2.297-0.393-3.405c-0.034-0.279-0.061-0.562-0.086-0.845h1.257c0.34,0,0.34-0.525,0-0.525h-1.295
	c-0.058-0.843-0.085-1.695-0.096-2.546c0.256-0.015,0.51-0.039,0.76-0.09c0.332-0.069,0.191-0.576-0.14-0.507
	c-0.205,0.043-0.415,0.064-0.627,0.078c-0.003-0.618-0.004-1.233-0.003-1.839h1.488c0.339,0,0.339-0.525,0-0.525h-2.775
	c-0.339,0-0.339,0.525,0,0.525h0.762c0.001,0.615,0.007,1.234,0.019,1.855c-0.296-0.001-0.591-0.01-0.883-0.013
	c-0.005,0-0.008-0.003-0.013-0.003h-0.147c-0.34,0-0.34,0.526,0,0.526c0.349,0,0.702,0.011,1.055,0.01
	c0.021,0.845,0.058,1.688,0.106,2.53h-0.751c-0.339,0-0.339,0.525,0,0.525h0.786c0.021,0.281,0.033,0.565,0.057,0.845
	c0.116,1.334,0.281,2.651,0.355,3.972c-0.37,0-0.74,0-1.11,0c-0.338,0-0.338,0.525,0,0.525h1.136
	c0.034,0.966,0.011,1.936-0.133,2.917c-0.054,0.375-0.07,0.763-0.078,1.153c-0.191-0.019-0.383-0.037-0.574-0.041
	c-0.339-0.007-0.338,0.518,0,0.525c0.191,0.004,0.381,0.019,0.571,0.034c0.009,0.64,0.042,1.281,0.042,1.899
	c0,0.575-0.021,1.146-0.041,1.719c-0.336,0.017-0.671,0.031-1.011,0.025c-0.339-0.004-0.338,0.521,0,0.526
	c0.334,0.005,0.664-0.009,0.993-0.025c-0.015,0.466-0.028,0.933-0.027,1.402c0.001,1.049,0.068,2.097,0.085,3.148
	c-0.373,0.017-0.739,0.056-1.091,0.144c-0.206,0.052-0.234,0.293-0.116,0.438c0.021,0.024,0.039,0.048,0.059,0.071
	c0.123,0.152,0.297,0.088,0.381-0.04c0.251-0.05,0.509-0.078,0.772-0.091c0,0.034,0.001,0.069,0.001,0.104
	c-0.009,1.003-0.102,1.997-0.096,2.994h-9.188c-0.505,0-1.001-0.031-1.496-0.066c-0.015-5.029-0.146-10.049-0.763-15.033
	c-0.333-2.69-0.632-5.458-0.639-8.168c-0.002-0.666,0.078-1.849-0.258-2.421c-0.304-0.52-1.621-0.233-2.065-0.235
	c-1.175-0.005-2.284,0.125-3.456,0.174c-0.397,0.017-0.823,0.52-0.833,0.904c-0.013,0.399,0.141,0.728,0.174,1.135
	c0.048,0.572-0.083,1.054,0.059,1.625c0.359,1.448,0.194,3.064,0.314,4.546c0.179,2.195,0.542,4.326,0.716,6.498
	c-0.104,0.177-0.189,0.36-0.244,0.55c-0.059,0.211,0.133,0.343,0.3,0.321c0.024,0.461,0.042,0.924,0.041,1.39
	c0,0.153,0,0.309,0.001,0.462c-0.218,0.229-0.42,0.444-0.517,0.804c-0.088,0.329,0.42,0.468,0.507,0.141
	c0.003-0.009,0.008-0.019,0.011-0.026c0.003,1.97-0.017,4.019-0.351,5.939c-0.053,0.024-0.108,0.056-0.159,0.069
	c-0.292,0.08-0.21,0.491,0.045,0.514c-0.012,0.055-0.021,0.11-0.032,0.165c-0.029,0.132,0.037,0.296,0.184,0.323l0.155,0.03
	c0.299,0.058,0.439-0.349,0.218-0.475c0.019-0.097,0.028-0.195,0.044-0.292c0.292-0.221,0.52-0.528,0.789-0.799
	c0.584-0.587,1.174-1.144,1.661-1.815c0.554-0.765,1.325-1.394,1.979-2.077c0.202-0.212,1.089-1.547,1.453-1.697
	c-0.005,0.359-0.01,0.718-0.017,1.075c-0.015,0.877,0.084,1.733,0.132,2.599c-0.045-0.112-0.153-0.205-0.306-0.178
	c-0.254,0.044-0.421,0.147-0.564,0.37c-0.33,0.508-0.879,0.866-1.313,1.28c-0.412,0.394-0.812,0.799-1.207,1.207
	c-0.219,0.227-0.419,0.525-0.658,0.76c-0.674-0.002-1.35,0.052-2.024,0.052c-1.391,0-2.782,0.001-4.174-0.003
	c-0.07,0-0.142-0.006-0.212-0.008c-0.373-0.696-0.197-2.552-0.198-3.046c-0.001-1.195-0.029-2.407-0.348-3.566
	c-0.29-1.061-0.078-2.044-0.239-3.109c-0.202-1.332-0.079-2.626-0.346-3.951c-0.279-1.39-0.469-2.608-0.469-4.03
	c0-1.238,0.157-2.589-0.013-3.815c-0.246-1.759-2.016-1.385-3.417-1.11c-0.684,0.134-1.458,0.049-2.152,0.027
	c-0.551-0.017-1.013,0.186-1.56,0.211c-0.488,0.023-0.666,0.216-0.734,0.694c-0.12,0.827-0.032,1.776,0.14,2.591
	c0.245,1.17-0.089,2.432,0.098,3.62c0.176,1.117,0.472,2.366,0.444,3.498c-0.014,0.565,0.191,1.074,0.22,1.643
	c0.04,0.761-0.078,1.528-0.051,2.292c0.016,0.452,0.147,0.916,0.239,1.354c0.175,0.845,0.127,1.699,0.129,2.554
	c0.002,1.342,0.001,2.684,0.001,4.026c-1.307-0.013-2.615-0.036-3.918-0.044c-0.008,0-0.014-0.005-0.023-0.004
	c-0.175,0.013-0.08-2.889-0.076-3.131c0.021-1.079-0.168-2.229-0.497-3.252c-0.162-0.504,0.251-1.755-0.048-2.233
	c0.037-0.184-0.163-0.372-0.349-0.299c-0.558-0.303-1.271-0.17-1.912-0.281c-1.04-0.18-2.249-0.193-3.291-0.039
	c-0.495,0.074-1.744,0.127-2.083,0.625c-0.513,0.752-0.282,1.959-0.248,2.863c-0.049,0.017-0.097,0.045-0.133,0.098
	c-0.038,0.052-0.074,0.104-0.111,0.158c-0.14,0.2,0.057,0.384,0.25,0.381v4.673c0,0.012,0.006,0.02,0.007,0.03
	c-0.042,0-0.085,0-0.127,0c-1.693,0.013-3.364,0.211-5.038,0.3c-0.026-0.022-0.058-0.04-0.099-0.051
	c-0.02-0.129-0.03-0.258-0.029-0.389c0.119-0.041,0.221-0.152,0.197-0.311c-0.258-1.634-0.288-3.419-0.061-5.064
	c0.24-1.742,0.069-3.596,0.069-5.353c0-0.805,0.001-1.607-0.014-2.411c-0.018-0.955,0.197-1.84,0.305-2.776
	c0.188-1.635,0.38-3.334,0.208-4.979c-0.016-0.154-0.108-0.248-0.262-0.263c-1.287-0.128-2.619-0.193-3.917-0.192
	c-0.787,0-2.501-0.311-3.213,0.203c-1.188,0.855-0.64,3.059-0.637,4.302c0.003,1.387,0.167,2.749,0.161,4.14
	c-0.008,1.718,0.008,3.437,0.012,5.155c0.003,1.429,0.141,2.861,0.009,4.287c-0.118,1.278-0.384,2.663-0.146,3.938
	c-0.576,0.086-1.153,0.119-1.729,0.235c-0.562,0.113-1.106,0.264-1.661,0.376c0.017-0.036,0.028-0.076,0.023-0.128
	c-0.129-1.406-0.35-2.771-0.35-4.196c0-1.927,0-3.853,0-5.781c0-0.901,0.143-1.784,0.175-2.683c0.015-0.414,0.182-1.159-0.087-1.538
	c-0.115-0.163-0.22-0.276-0.443-0.267c-0.867,0.037-1.689,0.21-2.569,0.173c-0.851-0.037-2.404,0.068-3.097,0.616
	c-0.687,0.542-0.831,1.539-0.849,2.487c-0.089,0.139-0.136,0.298-0.123,0.483c0.007,0.101,0.054,0.17,0.125,0.213
	c0.005,0.22,0.011,0.432,0.013,0.623c0.006,0.561,0.033,1.118,0.064,1.674c-0.001,0.002-0.002,0.003-0.003,0.005
	c-0.069,0.11-0.044,0.215,0.02,0.289c0.06,1.003,0.127,2.003,0.121,3.008c-0.01,1.578-0.281,3.454,0.021,5.008
	c-0.002,0.018-0.004,0.028-0.005,0.048c-0.012,0.155,0.137,0.259,0.279,0.254c0.024,0.004,0.048,0.008,0.072,0.013
	c0.124,0.022,0.222-0.035,0.278-0.119c0.763-0.337,1.558-1.182,2.138-1.674c1.091-0.924,2.289-1.64,3.348-2.583
	c0.001,0.229,0,0.458,0.001,0.688c0.001,0.495,0.054,0.981,0.118,1.466c-0.015,0.012-0.03,0.017-0.043,0.031
	c-0.201,0.217-0.459,0.328-0.688,0.508c-0.276,0.217-0.514,0.478-0.797,0.687c-0.217,0.162-0.449,0.296-0.661,0.466
	c-0.1,0.079-0.271,0.409-0.406,0.51c-1.945,0.114-3.877,0.205-5.847,0.205c-0.339,0-0.339,0.526,0,0.526
	c1.922,0,3.791-0.075,5.678-0.191c0.03,0.011,0.063,0.018,0.103,0.017c0.082-0.004,0.149-0.017,0.212-0.037
	c0.597-0.038,1.196-0.079,1.801-0.125c1.233-0.093,2.365-0.38,3.578-0.624c1.599-0.321,3.296-0.437,4.923-0.441
	c1.227-0.002,2.35,0.296,3.577,0.063c0.645-0.122,1.321-0.041,1.973-0.032c0.75,0.011,1.5-0.167,2.246-0.227
	c1.386-0.111,2.791-0.008,4.18,0.019c1.388,0.025,2.715,0.355,4.1,0.351c0.402-0.003,0.806,0,1.208-0.002
	c0.018,0,0.033,0.006,0.052,0.004c0.005,0,0.009-0.002,0.014-0.004c2.577-0.005,5.154,0.004,7.729,0.004
	c1.244,0,2.444,0.175,3.69,0.173c0.167,0,0.332,0,0.499,0c0.055,0.051,0.119,0.098,0.197,0.142c0.163,0.094,0.313-0.006,0.368-0.141
	c1.212,0,2.423,0.002,3.634,0.002c0.673,0,1.342-0.032,2.009-0.038c0.046,0.145,0.207,0.264,0.385,0.177
	c0.094-0.046,0.185-0.105,0.274-0.172c0.533,0.015,1.064,0.06,1.597,0.164c0.188,0.037,0.38,0.05,0.572,0.055
	c0.07,0.158,0.271,0.254,0.412,0.087c0.027-0.032,0.059-0.06,0.087-0.088c0.313-0.008,0.628-0.017,0.936,0.025
	c0.098,0.013,0.188,0.025,0.28,0.037c0,0.181,0,0.36,0,0.541c0,0.339,0.526,0.339,0.526,0c0-0.159-0.002-0.318-0.002-0.478
	c0.315,0.032,0.631,0.053,0.981,0.047c3.203-0.052,6.41-0.011,9.613-0.008c0.002,0,0.003,0.001,0.004,0.001h0.109
	c0.094,0.244,0.517,0.218,0.505-0.089c-0.039-0.97,0.085-1.955,0.089-2.94c0-0.202-0.004-0.403-0.008-0.606
	c0.566,0.003,1.138,0.044,1.67,0.044C70.837,25.583,70.837,25.057,70.498,25.057z M55.899,10.457
	c0.097,1.485,0.177,2.975,0.453,4.422c0.15,0.781,0.208,1.601,0.276,2.414c-0.005,0.003-0.01,0.003-0.015,0.006
	c-0.981,0.635-1.612,1.978-2.411,2.843c-0.997,1.076-1.867,2.27-2.826,3.371c0.017-0.447,0.027-0.894,0.024-1.328
	c-0.004-0.579,0.005-1.158,0.007-1.737c0.217-0.26,0.443-0.512,0.566-0.704c0.483-0.756,1.06-1.464,1.622-2.161
	c0.871-1.077,1.717-2.112,2.502-3.253c0.192-0.28-0.264-0.543-0.453-0.266c-0.948,1.376-2.039,2.608-3.047,3.937
	c-0.411,0.544-0.813,1.09-1.188,1.659c0.004-0.379,0-0.757,0.005-1.136c0.004-0.3-0.01-0.597-0.029-0.891
	c0.282-0.421,0.651-0.851,0.85-1.197c0.443-0.778,0.951-1.514,1.408-2.284c0.429-0.72,0.906-1.378,1.372-2.074
	C55.344,11.591,55.487,10.901,55.899,10.457z M50.355,7.272c0.055-0.016,0.104-0.054,0.138-0.125
	c0.329-0.707,0.784-1.333,1.222-1.974c0.347-0.509,0.838-0.833,1.082-1.417c0.131-0.313-0.378-0.448-0.507-0.14
	c-0.235,0.564-0.813,0.973-1.157,1.479c-0.304,0.446-0.61,0.886-0.871,1.355c-0.046-0.238-0.095-0.477-0.101-0.734
	c-0.01-0.406,0.131-0.819,0.018-1.225c-0.276-0.991,0.557-1.055,1.233-1.095c0.688-0.041,1.309-0.206,2.009-0.163
	c0.567,0.035,1.142,0.019,1.71,0.015c0.123,0,0.2,0.079,0.253,0.19c-0.306,0.037-0.505,0.154-0.711,0.447
	c-0.565,0.801-1.221,1.532-1.787,2.333c-0.587,0.832-1.891,1.987-2.359,3.103c0.001-0.185,0.002-0.371,0.003-0.556
	C50.53,8.257,50.353,7.787,50.355,7.272z M50.953,13.669c-0.124-0.997-0.314-1.982-0.396-2.986
	c-0.012-0.148-0.011-0.297-0.017-0.446c0.146,0.03,0.327-0.049,0.339-0.244c0.019-0.306,0.513-0.928,0.673-1.197
	c0.343-0.58,0.881-1.076,1.285-1.616c0.426-0.569,0.823-1.152,1.268-1.708c0.248-0.311,0.96-1.461,1.394-1.514
	c0.012,0.128,0.019,0.245,0.031,0.317c0.182,0.994,0.027,2.013,0.085,3.017c-0.887,0.083-1.12,1.092-1.511,1.818
	c-0.444,0.826-0.968,1.563-1.515,2.327c-0.445,0.624-0.896,1.806-1.579,2.184C50.984,13.634,50.97,13.652,50.953,13.669z
	 M50.996,14.053c0.073,0.057,0.173,0.079,0.279,0.021c0.907-0.501,1.429-1.898,2.015-2.717c0.463-0.648,0.911-1.269,1.269-1.982
	c0.132-0.263,0.715-1.491,1.106-1.563c0.088,0.661,0.144,1.331,0.19,2.001c-0.389,0.263-0.65,0.691-0.872,1.101
	c-0.487,0.899-1.065,1.699-1.58,2.583c-0.526,0.901-1.102,1.771-1.622,2.675c-0.131,0.227-0.296,0.449-0.464,0.671
	c-0.092-0.84-0.221-1.675-0.293-2.529C51.018,14.226,51.005,14.14,50.996,14.053z M56.098,21.133
	c-0.545,0.805-1.193,1.49-1.868,2.194c-0.581,0.606-1.091,1.14-1.616,1.8c-0.324,0.406-0.931,1.182-1.519,1.684
	c0.052-0.412,0.096-0.825,0.139-1.237c0.043-0.396,0.074-0.803,0.101-1.213c1.028-1.11,1.9-2.378,2.916-3.51
	c0.484-0.54,0.952-1.067,1.397-1.64c0.265-0.34,0.666-0.958,1.039-1.303c0.021,0.204,0.038,0.407,0.065,0.607
	c0.09,0.689,0.114,1.386,0.116,2.084C56.484,20.632,56.33,20.789,56.098,21.133z M3.335,16.521c0.14-0.956,1.025-1.326,1.996-1.464
	c-0.042,0.047-0.084,0.096-0.127,0.148c-0.324,0.392-0.709,0.736-1.052,1.112c-0.27,0.296-0.562,0.512-0.874,0.725
	C3.298,16.868,3.31,16.691,3.335,16.521z M3.181,20.068c-0.013-0.619-0.016-1.242,0.01-1.866c0.034-0.067,0.039-0.151,0.01-0.229
	c0.004-0.077,0.005-0.153,0.01-0.229c0.196-0.202,0.551-0.367,0.704-0.476c0.231-0.163,0.42-0.372,0.609-0.581
	c0.235-0.259,0.474-0.514,0.721-0.762c0.224-0.225,0.479-0.655,0.775-0.775c0.082-0.034,0.131-0.095,0.155-0.163
	c0.466-0.016,0.906-0.002,1.247,0.003c0.421,0.007,0.798-0.051,1.21-0.141c0.069-0.015,0.127-0.014,0.183-0.006
	c-0.025,0.011-0.05,0.021-0.074,0.042c-1.022,0.9-1.88,1.884-2.843,2.848c-0.609,0.609-1.332,1.13-1.965,1.72
	C3.695,19.677,3.425,19.86,3.181,20.068z M9.132,16.953c-0.052,0.523-0.078,1.046-0.093,1.569c-0.051-0.027-0.11-0.041-0.18-0.024
	c-0.384,0.09-0.585,0.312-0.837,0.607c-0.578,0.679-1.366,1.196-2.074,1.723c-0.841,0.626-2.057,1.155-2.501,2.169
	c-0.134,0.308,0.318,0.575,0.454,0.267c0.431-0.984,1.762-1.571,2.593-2.19c0.412-0.307,0.814-0.609,1.205-0.944
	c0.337-0.29,0.854-1.02,1.3-1.125c0.01-0.002,0.016-0.008,0.025-0.011c-0.014,0.732-0.008,1.465-0.008,2.202
	c0,0.956,0,1.913,0.001,2.869c-0.951,0.933-2.041,1.599-3.082,2.42c-0.597,0.471-1.162,0.98-1.775,1.43
	C4.014,28.02,3.76,28.235,3.52,28.406c-0.04-0.049-0.093-0.084-0.154-0.099c-0.007-0.403,0.001-1.096,0.012-1.769
	c0.065-0.011,0.128-0.048,0.172-0.122c0.197-0.337,0.856-0.705,1.157-0.956c0.541-0.45,1.119-0.852,1.692-1.259
	c0.447-0.319,0.891-0.637,1.379-0.891c0.313-0.162,0.473-0.504,0.757-0.654c0.3-0.158,0.034-0.612-0.265-0.454
	c-0.376,0.199-0.601,0.574-0.999,0.78c-0.617,0.319-1.181,0.793-1.743,1.197c-0.502,0.361-0.984,0.734-1.458,1.13
	c-0.232,0.192-0.472,0.325-0.679,0.504c0.01-0.523,0.019-0.938,0.019-1.038c0-1.263-0.144-2.472-0.201-3.716
	c-0.004-0.083-0.004-0.17-0.007-0.254c0.262-0.415,1.057-0.937,1.425-1.28c0.531-0.494,1.092-0.948,1.642-1.419
	c0.507-0.435,0.908-1.012,1.346-1.514c0.452-0.518,0.988-0.885,1.498-1.334c0.023-0.02,0.036-0.042,0.049-0.065
	C9.336,15.729,9.156,16.702,9.132,16.953z M8.928,28.999c-0.573,0.036-1.142,0.07-1.71,0.104c0.138-0.152,0.321-0.263,0.494-0.375
	C8,28.541,8.244,28.326,8.493,28.09c0.222-0.209,0.487-0.35,0.726-0.529c0.056,0.391,0.111,0.781,0.147,1.175
	c0.009,0.092,0.055,0.155,0.115,0.197C9.299,28.961,9.115,28.988,8.928,28.999z M20.135,26.619c-0.05,0.042-0.083,0.105-0.084,0.189
	c-0.005,0.412-0.053,0.823,0.005,1.229c-0.861,0.029-1.722,0.022-2.59-0.068c-1.158-0.123-2.389-0.017-3.548,0.18
	c-0.007-0.094-0.065-0.174-0.19-0.191c-0.131-0.019,0.254-5.501,0.235-6.004c-0.09-2.358-0.06-4.723-0.055-7.082
	c0.004-1.818-0.084-3.64-0.181-5.455c-0.032-0.61-0.317-2.344,0.533-2.556c1.035-0.259,2.235-0.107,3.294-0.108
	c0.873-0.001,1.723,0.192,2.594,0.165c1.004-0.031,0.635,1.609,0.613,2.379c-0.06,2.062-0.558,4.04-0.535,6.123
	c0.025,2.301,0.21,4.743-0.104,7.024C19.934,23.804,19.972,25.245,20.135,26.619z M26.782,19.709
	c0.333-0.104,1.671-0.286,3.041-0.34c-0.259,0.23-0.557,0.376-0.857,0.561c-0.344,0.211-0.628,0.562-0.927,0.832
	c-0.441,0.399-0.953,0.699-1.445,1.027c-0.118,0.079-0.228,0.182-0.335,0.286C26.237,20.982,26.316,19.854,26.782,19.709z
	 M29.721,27.728c-0.009,0.015-0.009,0.029-0.015,0.043c-1.116-0.034-2.238-0.053-3.357-0.053c0.001-0.012,0.007-0.021,0.007-0.033
	v-3.579c0-0.224-0.044-0.743-0.074-1.349c0.196-0.167,0.373-0.364,0.577-0.516c0.347-0.258,0.736-0.454,1.077-0.722
	c0.405-0.317,0.779-0.663,1.15-1.019c0.367-0.352,0.867-0.489,1.223-0.864c0.085-0.09,0.088-0.197,0.048-0.283
	c1.016-0.015,1.976,0.058,2.482,0.298c-0.947,0.854-1.985,1.601-2.941,2.445c-1.02,0.902-2.073,1.839-3.348,2.356
	c-0.31,0.124-0.175,0.633,0.14,0.506c1.09-0.442,2.012-1.118,2.9-1.88c1.189-1.021,2.458-1.98,3.614-3.045
	c0.005,0.032,0.009,0.066,0.006,0.101c-0.059,0.706-0.003,1.397,0.09,2.085c-0.012,0.009-0.024,0.013-0.035,0.022
	c-0.315,0.307-5.728,4.537-5.893,4.258c-0.173-0.292-0.627-0.027-0.455,0.265c0.458,0.774,1.814-0.394,2.258-0.688
	c1.443-0.955,2.94-2.049,4.215-3.24c0.107,0.688,0.226,1.376,0.284,2.074c-0.659,0.343-1.121,0.932-1.758,1.323
	c-0.453,0.279-0.905,0.563-1.366,0.832C30.209,27.266,29.915,27.367,29.721,27.728z M33.693,28.121
	c-0.044,0-0.088-0.002-0.132-0.002c-1.105,0-2.154-0.222-3.235-0.309c0.203-0.183,0.504-0.297,0.72-0.422
	c0.384-0.225,0.75-0.478,1.135-0.698c0.565-0.324,0.975-0.862,1.522-1.201c0.002,0.104,0.011,0.207,0.01,0.312
	C33.709,26.186,33.485,27.408,33.693,28.121z M42.915,28.109c-1.369,0.063-2.744,0.072-4.121,0.064
	c0.003-2.038,0.281-4.313-0.077-6.317c-0.379-2.112-0.112-4.228-0.497-6.331c-0.19-1.041-0.34-2.116-0.462-3.167
	c-0.111-0.975,0.145-2-0.009-2.963c-0.103-0.647-0.18-1.259-0.187-1.913c-0.006-0.567-0.02-0.947,0.548-1.079
	c1.179-0.274,2.353-0.006,3.523-0.236c0.548-0.107,1.019-0.118,1.565-0.115c0.847,0.004,1.182,0.178,1.202,1.147
	c0.03,1.294-0.003,2.593-0.003,3.888c0,1.153,0.106,2.082,0.383,3.199c0.183,0.735,0.325,1.48,0.305,2.24
	c-0.013,0.469-0.071,0.92,0.014,1.39c0.191,1.058,0.05,2.063,0.166,3.113c0.121,1.102,0.474,2.14,0.521,3.273
	c0.043,1.018-0.048,2.036,0.105,3.045c0.053,0.337,0.037,0.647,0.084,0.919C44.95,28.205,43.925,28.06,42.915,28.109z
	 M56.215,27.982c-0.17,0.202-0.401,0.337-0.611,0.498c-0.131-0.002-0.262-0.01-0.394-0.008c-0.506,0.008-1.03-0.114-1.551-0.182
	c0.32-0.355,0.617-0.755,0.902-1.041c0.388-0.391,0.783-0.775,1.2-1.135c0.213-0.182,0.782-0.932,1.056-0.979
	c0.094-0.016,0.147-0.068,0.172-0.135c0.008,0.192,0.02,0.387,0.02,0.58c0,0.618,0,1.237,0,1.855
	c-0.045-0.016-0.096-0.022-0.155-0.004C56.547,27.526,56.411,27.75,56.215,27.982z M56.415,28.509
	c0.097-0.084,0.186-0.169,0.266-0.271c0.088-0.114,0.165-0.255,0.312-0.299c0.008-0.004,0.011-0.008,0.017-0.01
	c0,0.206,0,0.411,0,0.616C56.812,28.532,56.613,28.521,56.415,28.509z"/>
</svg>
