<?xml version="1.0" encoding="utf-8"?>
<!-- Generator: Adobe Illustrator 16.0.0, SVG Export Plug-In . SVG Version: 6.00 Build 0)  -->
<!DOCTYPE svg PUBLIC "-//W3C//DTD SVG 1.1//EN" "http://www.w3.org/Graphics/SVG/1.1/DTD/svg11.dtd">
<svg version="1.1" id="图层_1" xmlns="http://www.w3.org/2000/svg" xmlns:xlink="http://www.w3.org/1999/xlink" x="0px" y="0px"
	 width="105.076px" height="33.683px" viewBox="0 0 105.076 33.683" enable-background="new 0 0 105.076 33.683"
	 xml:space="preserve">
<path fill="#FFFFFF" d="M104.452,24.084c-0.034-0.134-0.143-0.223-0.268-0.258c0.12-0.383,0.241-0.768,0.328-1.162
	c0.344-1.549,0.281-3.357-0.275-4.846c-1.115-2.977-5.854-2.198-8.24-2.063c-0.502,0.028-0.994,0.021-1.48-0.002
	c0.07-0.033,0.145-0.061,0.229-0.079c0.48-0.099,0.277-0.832-0.201-0.733c-0.47,0.097-0.804,0.385-1.093,0.733
	c-1.278-0.124-2.538-0.324-3.855-0.367c-2.69-0.089-5.3-0.419-8.02-0.389c-0.339,0.004-0.679,0-1.019,0.001
	c-0.01-0.182-0.129-0.362-0.363-0.372c-0.471-0.021-0.879,0.132-1.242,0.374c-2.025-0.003-4.051-0.017-6.076-0.013
	c-2.568,0.006-4.942,0.44-7.458,0.914c-1.083,0.204-2.151,0.252-3.22,0.248c0.207-0.211,0.411-0.361,0.605-0.396
	c0.482-0.087,0.277-0.819-0.202-0.733c-0.666,0.12-1.016,0.585-1.319,1.116c-1.236-0.033-2.473-0.104-3.732-0.064
	c-1.367,0.043-2.706,0.383-4.08,0.428c-0.354,0.012-0.708,0.015-1.062,0.013c-0.028-0.302-0.391-0.548-0.621-0.253
	c-0.063,0.08-0.127,0.16-0.19,0.242c-0.772-0.015-1.544-0.035-2.315-0.024c-1.161,0.017-2.252,0.321-3.403,0.439
	c-0.097,0.011-0.196,0.009-0.293,0.015c0.002-0.039,0.005-0.079-0.007-0.125c-0.022-0.083-0.043-0.166-0.065-0.25
	c-0.058-0.222-0.358-0.371-0.559-0.227c-0.268,0.191-0.525,0.397-0.777,0.613c-0.708-0.035-1.417-0.112-2.102-0.195
	c-1.02-0.123-2.026-0.16-3.031-0.155c-0.001-0.005-0.003-0.01-0.004-0.015c-0.06-0.186-0.267-0.339-0.468-0.266
	c-0.241,0.088-0.416,0.182-0.569,0.301c-1.081,0.045-2.163,0.143-3.258,0.293c-1.979,0.271-3.93,0.573-5.91,0.699
	c-0.056-0.178-0.223-0.336-0.457-0.303c-0.37,0.051-0.707,0.178-1.02,0.356c-0.09,0.001-0.178,0.01-0.268,0.01
	c-1.448,0.001-2.895-0.04-4.341-0.081c-0.03-0.158-0.145-0.299-0.354-0.299c-0.427,0-0.795,0.098-1.121,0.262
	c-0.881-0.021-1.762-0.037-2.644-0.036c-2.679,0.002-5.31,0.53-8.005,0.533c-0.235,0.001-0.471,0-0.706,0.001
	c0.01-0.004,0.019-0.011,0.028-0.014c0.476-0.118,0.273-0.852-0.202-0.732c-0.575,0.143-0.979,0.365-1.295,0.746
	c-1.175,0-2.35,0-3.525,0c-0.015-0.002-0.03,0-0.045,0c-0.967,0-1.935,0-2.902,0c-0.043,0-0.078,0.013-0.114,0.023
	c-0.002-0.85-0.002-1.699-0.002-2.548c0-1.313,0.013-2.626,0.026-3.94c2.695,0.035,5.234-0.216,7.914-0.353
	c3.139-0.16,6.314-0.027,9.458-0.027c2.674,0,5.328-0.461,7.982-0.274c3.24,0.229,6.442,0.274,9.69,0.274
	c4.209,0,8.354-0.491,12.525-0.326c-0.139,0.157-0.273,0.322-0.391,0.514c-0.257,0.419,0.4,0.801,0.657,0.384
	c0.202-0.33,0.444-0.595,0.701-0.843c0.889,0.059,1.779,0.139,2.672,0.277c2.33,0.361,5.035,0.047,7.399,0.021
	c1.302-0.015,2.583-0.203,3.874-0.34c1.275-0.136,2.598,0.147,3.857-0.065c0.777-0.131,1.846-0.172,2.567-0.411
	c0.271-0.09,0.472-0.208,0.562-0.509c0.406-1.36,0.33-3.145,0.06-4.725c0.019-0.109-0.001-0.221-0.058-0.308
	c-0.086-0.455-0.186-0.892-0.295-1.289c-0.41-1.471-1.935-1.686-3.226-1.892c-2.589-0.413-5.214,0.885-7.843,0.733
	c-2.648-0.153-5.166,0.376-7.803,0.407c0.02-0.015,0.038-0.031,0.058-0.045c0.389-0.289,0.011-0.949-0.384-0.657
	c-0.306,0.227-0.605,0.465-0.902,0.706c-2.73-0.004-5.462-0.022-8.191,0.023c-0.469,0.008-0.904-0.087-1.326-0.224
	c0.141-0.081,0.286-0.151,0.445-0.191c0.476-0.118,0.274-0.852-0.202-0.733c-0.407,0.101-0.778,0.317-1.129,0.589
	c-0.546-0.229-1.092-0.47-1.683-0.598c-0.972-0.211-2.096,0.041-3.077,0.094c-1.098,0.06-2.206-0.333-3.297-0.458
	c-1.654-0.19-3.425-0.016-5.09-0.019c-2.062-0.004-4.124-0.123-6.185-0.098c-2.042,0.025-4.044,0.559-6.076,0.775
	c-0.072-0.245-0.392-0.422-0.63-0.187c-0.087,0.086-0.173,0.173-0.259,0.259c-1.5,0.084-3.017,0.061-4.53,0.036
	c0.038-0.008,0.075-0.021,0.115-0.025c0.482-0.051,0.487-0.813,0-0.761c-0.565,0.06-1.005,0.366-1.372,0.771
	c-0.336-0.004-0.672-0.01-1.007-0.01c-1.635,0-3.27,0.298-4.889,0.104C2.661,1.907,2.608,1.67,2.343,1.632
	c-0.481-0.07-0.796-0.058-1.046,0.285C1.305,1.793,1.32,1.681,1.345,1.584c0.253,0.082,0.594-0.111,0.503-0.448
	C1.817,1.022,1.786,0.908,1.754,0.793C1.686,0.539,1.415,0.465,1.196,0.566c-0.999,0.46-0.543,2.296-0.429,3.115
	c0.204,1.465,0.288,2.917,0.321,4.372C0.947,8.396,0.82,8.747,0.734,9.122C0.671,9.398,0.89,9.577,1.106,9.591
	c0.003,1.023-0.005,2.05-0.005,3.088c0,3.272,0.089,6.528,0.181,9.782c-0.264,0.325-0.535,0.644-0.83,0.943
	c-0.345,0.35,0.193,0.887,0.538,0.537c0.112-0.113,0.215-0.233,0.322-0.351c0.086,3.063,0.167,6.129,0.17,9.208
	c0,0.49,0.761,0.49,0.76,0c0-0.754,0.005-1.509,0.012-2.265c0.058-0.005,0.119-0.021,0.18-0.068
	c1.584-1.216,4.047-0.706,5.936-0.714c2.052-0.009,4-0.363,6.042-0.571c1.701-0.174,3.395-0.663,5.083-0.946
	c2.371-0.396,4.708-0.374,7.102-0.371c4.469,0.007,8.944,0.057,13.411-0.056c4.187-0.105,8.3,0.425,12.492,0.43
	c1.752,0.003,3.503,0.009,5.255,0.014c-0.248,0.302-0.484,0.612-0.702,0.935c-0.276,0.406,0.384,0.787,0.657,0.383
	c0.305-0.451,0.643-0.887,0.992-1.315c2.452,0.006,4.904,0.006,7.356-0.016c0.554-0.005,1.106,0.025,1.659,0.069
	c-0.219,0.282-0.45,0.555-0.719,0.801c-0.362,0.332,0.177,0.869,0.537,0.538c0.416-0.381,0.754-0.81,1.064-1.259
	c1.178,0.117,2.361,0.256,3.559,0.235c2.052-0.034,4.076,0.261,6.121,0.362c4.516,0.228,9.098,0.01,13.619,0.012
	c2.168,0.001,4.337,0,6.506,0c1.682,0,3.36,0.207,5.031-0.051c0.119-0.019,0.242-0.149,0.266-0.266
	c0.163-0.848,0.125-1.637,0.068-2.5c-0.031-0.482,0.035-0.941,0.143-1.391c0.013-0.012,0.023-0.024,0.037-0.035
	c0.251,0.145,0.665-0.055,0.569-0.422C104.495,24.25,104.474,24.166,104.452,24.084z M57.38,3.52
	c0.28-0.031,0.395-0.301,0.348-0.511c1.197-0.075,2.44,0.125,3.627,0.152c0.229,0.005,0.458-0.018,0.687-0.036
	c-1.365,0.896-2.548,2.039-3.661,3.231c-0.923,0.988-2.32,3.051-3.764,3.262c-0.484,0.07-0.277,0.803,0.202,0.733
	c1.21-0.177,2.353-1.539,3.163-2.369c1.579-1.619,2.925-3.342,4.914-4.515c0.192-0.114,0.213-0.312,0.141-0.471
	c0.762-0.138,1.518-0.332,2.264-0.485c0.545-0.112,1.287-0.208,2.044-0.2c-0.36,0.246-0.692,0.651-0.946,1
	c-0.571,0.784-0.967,1.558-1.652,2.261c-1.01,1.037-2.421,2.35-3.756,2.942c-0.447,0.199-0.06,0.854,0.385,0.657
	c1.691-0.751,3.354-2.426,4.582-3.776c0.252-0.277,1.739-2.971,2.122-2.444c0.286,0.393,0.946,0.014,0.657-0.384
	c-0.031-0.043-0.063-0.077-0.095-0.113c0.634,0.15,1.192,0.427,1.54,0.912c0.285,0.398,0.422,0.913,0.49,1.467
	c-1.576,0.838-2.168,2.977-3.887,3.644c-0.451,0.176-0.256,0.911,0.203,0.733c0.959-0.373,1.596-1.044,2.229-1.834
	c0.41-0.512,0.918-1.272,1.51-1.71c0.02,0.724-0.018,1.456,0.027,2.045c0.115,1.468,0.004,1.782-1.299,1.987
	c-1.515,0.238-2.904,0.263-4.436,0.304c-2.627,0.071-5.191,0.409-7.836,0.373c-1.502-0.021-3.021,0.157-4.509-0.074
	c-0.487-0.075-0.96-0.125-1.435-0.175c0.103-0.087,0.205-0.173,0.308-0.265c0.778-0.7,1.422-1.594,2.175-2.331
	c0.68-0.665,1.349-1.334,1.989-2.038C55.986,5.188,56.909,3.571,57.38,3.52z M51.25,3.489c1.778-0.047,3.519-0.163,5.308-0.371
	c-0.063,0.08-0.124,0.178-0.188,0.301c-0.623,1.208-1.836,2.25-2.793,3.19c-0.893,0.879-1.726,1.787-2.568,2.713
	c-0.244,0.268-0.503,0.494-0.761,0.719c-0.47-0.032-0.937-0.065-1.424-0.072c-1.336-0.021-2.669-0.055-4.006-0.024
	c-0.065,0.001-0.128,0.012-0.192,0.016C46.769,7.78,48.889,5.423,51.25,3.489z M46.365,3.621c0.08,0.422,0.652,0.317,0.731-0.038
	c0.656-0.033,1.299-0.063,1.91-0.063c0.36,0,0.709-0.008,1.063-0.013c-2.206,1.92-4.215,4.138-6.269,6.208
	c-0.105,0.106-0.122,0.229-0.094,0.34c-0.733,0.11-1.456,0.266-2.206,0.308c-0.79,0.044-1.584,0.064-2.379,0.071
	c0.324-1.403,2.642-2.728,3.656-3.592c0.593-0.505,1.153-1.049,1.747-1.556C44.772,5.076,46.437,3.999,46.365,3.621z M4.497,2.919
	c0.99-0.038,1.983-0.14,2.972-0.161C7.622,2.756,7.776,2.756,7.93,2.754C7.706,3.125,7.512,3.512,7.336,3.859
	C6.45,5.606,5.312,7.6,3.875,8.954C3.517,9.292,4.056,9.828,4.412,9.492c1.101-1.038,2.074-2.538,2.863-3.839
	c0.399-0.659,0.832-2.041,1.482-2.905c1.586,0.001,3.173,0.036,4.758-0.004c-0.641,0.658-1.259,1.333-1.811,2.078
	c-1.117,1.507-1.948,3.153-3.267,4.513c-0.342,0.352,0.196,0.891,0.538,0.538c0.99-1.02,1.76-2.171,2.524-3.366
	c0.907-1.419,1.965-2.616,3.128-3.798c0.62-0.034,1.239-0.083,1.856-0.161c2.767-0.348,5.316-0.679,8.116-0.576
	c3.088,0.114,6.344-0.339,9.38,0.297C35.002,2.483,35.959,2.481,37,2.395c1.13-0.094,1.942,0.149,2.852,0.466
	c-0.631,0.646-1.214,1.392-1.832,1.893c-1.768,1.432-3.669,2.949-5.247,4.581c-0.341,0.353,0.196,0.891,0.538,0.538
	c1.322-1.367,2.925-2.563,4.347-3.839c0.703-0.631,1.46-1.182,2.138-1.844c0.304-0.297,0.597-0.684,0.92-1.029
	c0.067,0.022,0.132,0.045,0.202,0.068c1.333,0.433,2.854,0.479,4.374,0.432c-0.801,0.814-1.797,1.494-2.632,2.264
	c-0.968,0.893-2.028,1.674-2.982,2.583c-0.583,0.555-1.127,0.942-1.297,1.755c-0.013,0.061-0.012,0.118,0,0.169
	c-2.003-0.002-4.015-0.067-6.003-0.067c-1.815,0-3.8-0.377-5.705-0.45c0.432-0.417,0.973-0.809,1.322-1.165
	c0.759-0.774,1.461-1.539,2.333-2.195c0.582-0.438,1.179-0.851,1.751-1.301c0.519-0.408,1.387-1.825,2.105-1.733
	c0.485,0.062,0.479-0.7,0-0.761c-0.667-0.084-1.012,0.211-1.438,0.705c-0.833,0.967-1.767,1.685-2.803,2.434
	c-0.928,0.671-1.703,1.485-2.487,2.314c-0.563,0.594-1.298,1.042-1.776,1.7c-0.478,0.014-0.95,0.047-1.407,0.13
	c-3.138,0.568-6.343,0.323-9.528,0.323c-4.309,0-8.554,0.436-12.853,0.38c0.009-0.909,0.01-1.818,0.014-2.727
	c0.374-0.903,0.872-1.776,1.37-2.583C3.786,4.609,4.347,3.882,4.497,2.919z M1.309,2.605C1.341,2.626,1.37,2.65,1.411,2.661
	c0.766,0.202,1.54,0.269,2.318,0.272C3.533,4.029,2.603,5.007,2.106,5.979C2.041,6.106,1.975,6.229,1.91,6.354
	C1.883,5.741,1.414,3.915,1.309,2.605z M1.866,19.996c0.002-0.43-0.001-0.859-0.001-1.289c0.036,0.01,0.07,0.022,0.114,0.022h0.644
	h0c0.479,0,0.959-0.001,1.438,0c-0.748,0.899-1.392,1.881-2.081,2.825C1.917,21.039,1.862,20.522,1.866,19.996z M2.217,23.786
	c-0.015-0.387-0.056-0.77-0.103-1.151c0.997-1.294,1.846-2.702,2.96-3.906c0.974,0.001,1.949,0,2.923,0
	c-0.631,1.318-1.659,2.556-2.561,3.693c-0.798,1.008-1.571,2.049-2.423,3.011c-0.27,0.306-0.534,0.622-0.746,0.965
	C2.261,25.525,2.25,24.654,2.217,23.786z M2.26,29.668c0.005-0.607,0.006-1.215,0.008-1.822c0.156,0.01,0.306-0.066,0.34-0.27
	c0.249-1.468,2.463-3.502,3.366-4.616c0.668-0.825,1.256-1.708,1.917-2.539c0.323-0.407,0.691-1.13,1.116-1.692
	c0.54,0,1.08,0,1.619,0c1.112-0.002,2.213-0.078,3.311-0.174c-0.125,0.099-0.245,0.221-0.378,0.4
	c-0.981,1.315-2.091,2.527-3.145,3.783c-0.826,0.984-1.74,1.867-2.499,2.908c-0.62,0.85-1.628,1.808-1.856,2.869
	c-0.033,0.152,0.024,0.271,0.114,0.355C4.76,28.826,3.371,28.927,2.26,29.668z M30.395,27.103
	c-3.469,0.005-6.967-0.181-10.412,0.292c-3.382,0.464-6.725,1.371-10.136,1.601c-0.968,0.065-2.059-0.044-3.154-0.103
	c0.044-0.043,0.081-0.098,0.098-0.176c0.188-0.875,0.96-1.455,1.456-2.163c0.706-1.009,1.451-1.911,2.288-2.813
	c0.735-0.794,1.404-1.648,2.119-2.461c0.38-0.433,1.413-2.229,2.136-2.17c0.389,0.033,0.461-0.436,0.233-0.652
	c1.432-0.131,2.861-0.262,4.306-0.263c0.342,0,0.685,0.007,1.027,0.011c-0.466,0.52-0.844,1.17-1.219,1.786
	c-0.853,1.4-1.858,2.669-2.929,3.907c-0.811,0.938-1.55,2.088-2.447,2.928c-0.358,0.336,0.18,0.873,0.538,0.538
	c1.518-1.421,2.833-3.307,4.115-4.95c0.853-1.094,1.75-3.433,3.1-4.195c1.634,0.035,3.268,0.084,4.903,0.109
	c-0.777,0.793-1.393,1.85-1.999,2.646c-1.438,1.891-3.6,3.384-4.632,5.549c-0.21,0.439,0.446,0.826,0.657,0.383
	c0.81-1.696,2.361-2.816,3.609-4.173c1.032-1.122,2.086-3.447,3.54-4.388c0.074,0,0.148,0.004,0.222,0.004
	c2.807-0.002,5.572-0.618,8.35-0.936c0.392-0.045,0.778-0.072,1.163-0.092c-0.92,1.246-2.106,2.34-3.204,3.416
	c-0.911,0.895-1.775,1.783-2.527,2.817c-0.491,0.675-1.022,2.302-1.974,2.399c-0.483,0.049-0.488,0.811,0,0.76
	c1.349-0.139,1.991-1.77,2.631-2.775c0.87-1.369,2.206-2.451,3.342-3.588c0.646-0.646,1.267-1.313,1.874-1.995
	c0.236-0.267,0.53-0.733,0.852-1.061c1.703-0.007,3.371,0.161,5.099,0.267c-1.389,1.357-2.605,2.957-4.028,4.243
	c-0.984,0.89-1.634,2.045-2.547,2.995c-0.616,0.64-1.358,1.275-1.504,2.193c-0.006,0.035,0.001,0.064,0.003,0.098
	C33.693,27.1,32.044,27.101,30.395,27.103z M42.548,27.047c-0.613-0.02-1.228-0.029-1.846-0.018
	c-1.534,0.031-3.068,0.045-4.602,0.055c0.194-0.836,0.99-1.445,1.561-2.039c0.816-0.848,1.411-1.875,2.266-2.701
	c1.52-1.468,2.914-3.322,4.536-4.734c0.966,0.02,1.916-0.042,2.87-0.221c1.224-0.23,2.451-0.247,3.684-0.23
	c-1.333,1.691-2.704,3.345-4.344,4.762c-1.553,1.343-2.996,3.247-4.071,4.983C42.571,26.952,42.556,27,42.548,27.047z
	 M51.312,27.477c-0.107,0-0.213-0.001-0.32-0.001c-2.555-0.001-5.063-0.282-7.597-0.399c1.124-1.766,2.691-3.646,4.255-4.998
	c1.651-1.426,2.99-3.188,4.322-4.908c0.267,0.006,0.534,0.012,0.802,0.015c2.717,0.03,5.323-0.493,8.054-0.344
	c-1.011,1.631-2.784,2.828-4.063,4.224c-1.045,1.143-2.238,2.307-3.114,3.586C52.979,25.631,51.492,26.279,51.312,27.477z
	 M68.163,27.68c-2.205-0.104-4.412-0.184-6.625-0.182c-0.732,0.001-1.465-0.004-2.197-0.004c1.422-1.619,3.041-3.129,4.427-4.713
	c0.892-1.018,2.043-1.733,2.913-2.766c0.857-1.018,1.591-3.199,3.247-3.188c0.49,0.004,0.49-0.757,0-0.76
	c-1.169-0.008-1.825,0.75-2.544,1.596c-0.379,0.445-0.678,0.946-0.987,1.438c-0.599,0.95-1.489,1.561-2.331,2.27
	c-1.428,1.205-2.512,2.881-3.817,4.221c-0.607,0.622-1.235,1.248-1.831,1.9c-2.084-0.005-4.17-0.01-6.255-0.014
	c0.395-0.764,1.796-1.919,2.146-2.445c0.826-1.246,2.065-2.24,2.995-3.43c0.892-1.141,2.114-2.051,3.125-3.082
	c0.302-0.308,0.711-1.023,1.149-1.66c2.498,0.039,4.851-0.493,7.322-0.933c2.942-0.524,6.063-0.26,9.04-0.247
	c0.062,0,0.126-0.001,0.188-0.001c-0.085,0.1-0.168,0.202-0.247,0.305c-1.276,1.656-2.714,3.042-4.134,4.557
	c-0.504,0.537-0.8,1.224-1.285,1.779c-0.609,0.697-1.428,1.202-2.057,1.897C69.475,25.248,68.911,26.531,68.163,27.68z
	 M81.556,28.225c-4.189-0.018-8.355-0.297-12.527-0.506c0.23-0.382,0.451-0.771,0.674-1.168c0.937-1.67,2.341-2.598,3.552-3.982
	c0.396-0.453,0.658-1.02,1.031-1.488c0.558-0.702,1.36-1.27,1.97-1.945c0.643-0.711,1.814-2.656,2.965-3.465
	c2.799-0.057,5.703-0.272,8.42,0.259c1.2,0.235,2.428,0.101,3.639,0.283c0.552,0.083,1.068,0.182,1.594,0.259
	c-0.135,0.192-0.271,0.38-0.424,0.545c-1.178,1.276-2.543,2.186-3.646,3.571c-1.162,1.461-2.482,2.989-3.839,4.272
	c-0.497,0.471-1.116,0.791-1.614,1.27C82.694,26.76,82.175,27.551,81.556,28.225z M93.704,28.13c0.385-0.692,1.173-1.217,1.744-1.7
	c0.958-0.81,1.832-1.77,2.706-2.668c0.935-0.959,1.78-2.022,2.61-3.072c0.606-0.768,1.17-2.296,2.057-2.772
	c0.433-0.231,0.049-0.888-0.383-0.656c-0.76,0.407-1.078,1.188-1.514,1.901c-1.012,1.655-2.445,3.178-3.795,4.563
	c-0.91,0.934-1.844,1.854-2.842,2.691c-0.57,0.479-1.178,1.013-1.43,1.718c-1.736,0.005-3.473,0.022-5.207,0.046
	c0.037-0.031,0.07-0.074,0.097-0.132c0.54-1.209,1.763-1.778,2.776-2.541c1.06-0.796,1.963-1.807,2.9-2.735
	c1.007-0.998,1.913-2.125,2.985-3.047c0.595-0.512,1.229-1.625,1.901-2.189c0.155,0.054,0.342,0.031,0.464-0.135
	c0.083-0.114,0.167-0.229,0.251-0.342c0.197-0.271-0.129-0.66-0.43-0.559c-1.016,0.34-1.293,1.167-1.922,1.973
	c-0.91,1.168-2.282,2.252-3.336,3.313c-1.301,1.311-2.576,2.682-4.11,3.723c-0.893,0.605-1.686,1.145-2.138,2.156
	c-0.098,0.219,0.013,0.422,0.173,0.52c-1.55,0.021-3.099,0.04-4.644,0.045c1.984-2.05,3.959-4.045,5.863-6.199
	c1.043-1.178,2-2.445,3.24-3.42c0.586-0.461,1.133-0.916,1.64-1.465c0.151-0.165,0.274-0.373,0.399-0.58
	c0.15,0.01,0.297,0.023,0.453,0.025c2.359,0.029,4.768-0.432,7.117-0.053c2.934,0.475,2.861,4.053,2.365,6.294
	c-0.118,0.532-0.286,1.034-0.434,1.544c-0.413,0.428-0.728,0.941-1.076,1.445c-0.445,0.646-1.199,1.752-1.941,2.049
	c-0.183,0.074-0.254,0.238-0.25,0.396C97.906,28.168,95.807,28.133,93.704,28.13z M100.929,28.33
	c0.543-0.381,0.965-0.951,1.377-1.453c0.238-0.292,0.457-0.628,0.682-0.961c-0.008,0.494,0.068,1.015,0.093,1.495
	C103.132,28.422,101.815,28.403,100.929,28.33z"/>
<path fill="#FFFFFF" d="M22.396,2.378c-1.877-0.059-2.568,0.715-3.777,2.076c-1.57,1.768-3.081,3.697-4.858,5.26
	c-0.369,0.324,0.171,0.86,0.538,0.538c1.278-1.125,2.332-2.445,3.435-3.735c1.215-1.42,2.624-3.442,4.662-3.378
	C22.886,3.154,22.885,2.394,22.396,2.378z"/>
<path fill="#FFFFFF" d="M27.238,2.012c-0.751,0.136-1.139,0.688-1.674,1.199c-0.918,0.877-1.785,1.809-2.682,2.707
	c-0.793,0.794-1.56,1.628-2.416,2.355c-0.53,0.451-0.989,0.907-1.099,1.609c-0.075,0.479,0.657,0.686,0.733,0.202
	c0.122-0.783,0.865-1.223,1.397-1.707c0.668-0.607,1.284-1.284,1.921-1.923c0.641-0.642,1.275-1.291,1.91-1.938
	c0.525-0.536,1.322-1.629,2.11-1.772C27.922,2.658,27.717,1.925,27.238,2.012z"/>
<path fill="#FFFFFF" d="M87.419,16.068c-0.84,0.005-1.209,0.346-1.818,0.922c-1.398,1.322-2.944,2.527-4.438,3.74
	c-1.268,1.03-2.357,2.26-3.508,3.414c-0.566,0.568-1.113,1.131-1.617,1.756c-0.32,0.398-0.492,1.012-0.979,1.247
	c-0.441,0.213-0.057,0.868,0.384,0.656c0.747-0.36,0.991-1.19,1.507-1.829c0.878-1.089,1.98-2.043,2.956-3.045
	c1.081-1.109,2.29-2.057,3.477-3.049c0.933-0.779,2.733-3.045,4.036-3.053C87.909,16.825,87.91,16.065,87.419,16.068z"/>
</svg>
