<?xml version="1.0" encoding="utf-8"?>
<!-- Generator: Adobe Illustrator 16.0.0, SVG Export Plug-In . SVG Version: 6.00 Build 0)  -->
<!DOCTYPE svg PUBLIC "-//W3C//DTD SVG 1.1//EN" "http://www.w3.org/Graphics/SVG/1.1/DTD/svg11.dtd">
<svg version="1.1" id="图层_1" xmlns="http://www.w3.org/2000/svg" xmlns:xlink="http://www.w3.org/1999/xlink" x="0px" y="0px"
	 width="18.614px" height="35.777px" viewBox="0 0 18.614 35.777" enable-background="new 0 0 18.614 35.777" xml:space="preserve">
<path fill="#FFFFFF" d="M17.583,12.822c-2.447,2.655-5.34,4.767-7.459,7.763c-0.346,0.489-0.867,0.567-1.487,0.384
	c0-0.072-0.001-0.146,0-0.218c0.011-0.546-0.587-5.767-0.574-6.233c0.267-0.006,0.542-0.026,0.838-0.074
	c1.956-0.313,2.932-1.993,3.836-3.538c1.143-1.948,1.846-3.837,0.981-6.029c-0.286-0.727-0.815-1.353-1.339-1.918
	c-0.76-0.823-1.537-0.709-2.537-1.021C9.292,1.767,8.73,1.599,8.17,1.476c0.119-0.081,0.199-0.222,0.162-0.4
	c-0.015-0.07-0.029-0.141-0.043-0.211C8.253,0.689,8.084,0.6,7.922,0.586C6.36,0.445,4.331,1.493,3.317,2.655
	C2.028,4.133,2.018,6.429,2.008,8.268c-0.011,2.142,0.122,3.124,1.881,4.501c1.172,0.917,2.172,1.549,3.421,1.709
	c-0.12,1.003,0.151,2.023,0.314,3.017c0.164,1.001,0.278,2.094,0.319,3.189c-2.19-1.137-5.154-4.499-6.502-5.465
	c-0.054-0.117-0.158-0.214-0.321-0.227l-0.168-0.014c-0.376-0.029-0.521,0.541-0.191,0.709c1.922,0.982,2.925,2.861,4.577,4.136
	c0.623,0.48,1.627,1.252,2.609,1.751c-0.001,0.861-0.038,1.715-0.155,2.511c-0.082,0.555-1.054,1.451-1.435,1.996
	c-0.457,0.653-0.712,1.561-0.977,2.303c-0.285,0.799-0.543,1.603-0.768,2.421c-0.133,0.484-0.047,1.441-0.465,1.791
	c-0.377,0.313,0.164,0.849,0.538,0.537c0.563-0.469,0.534-1.464,0.661-2.126c0.372-1.931,1.205-3.622,2.272-5.207
	c0.147,0.97,0.731,2.007,1.053,2.792c0.515,1.255,1.027,2.517,1.557,3.766c0.398,0.942,0.645,2.005,1.147,2.894
	c0.175,0.309,0.584,0.202,0.694-0.091c0.021-0.056,0.043-0.111,0.064-0.167c0.088-0.234-0.061-0.398-0.248-0.444
	c-0.216-0.512-0.308-1.052-0.501-1.576c-0.342-0.93-0.843-1.844-1.201-2.783c-0.377-0.987-0.852-1.931-1.216-2.923
	c-0.218-0.593-0.947-1.899-0.481-2.499c0.136-0.175,0.094-0.38-0.016-0.518c0.215-0.749,0.203-1.569,0.181-2.377
	c0.309,0.107,0.607,0.183,0.876,0.183c0.366,0,0.673-0.364,0.896-0.601c0.808-0.856,1.456-1.921,2.23-2.82
	c1.665-1.932,3.745-3.409,5.466-5.275C18.453,13,17.917,12.461,17.583,12.822z M7.654,13.775c-0.014,0.003-0.025,0.018-0.039,0.022
	c-1.008-0.121-1.979-0.657-2.816-1.289c-1.555-1.173-2.088-2.329-2.031-4.241C2.808,6.98,2.836,5.746,3.193,4.496
	C3.44,3.628,3.971,2.963,4.672,2.459c0.106,0.117,0.27,0.172,0.443,0.06c1.616-1.052,5.813-0.013,7.081,1.36
	c2.486,2.691,0.348,7.736-2.445,9.452c-0.52,0.319-1.047,0.466-1.569,0.49c-0.082-0.067-0.188-0.106-0.317-0.083
	C7.794,13.751,7.725,13.763,7.654,13.775z"/>
</svg>
