<?xml version="1.0" encoding="utf-8"?>
<!-- Generator: Adobe Illustrator 16.0.0, SVG Export Plug-In . SVG Version: 6.00 Build 0)  -->
<!DOCTYPE svg PUBLIC "-//W3C//DTD SVG 1.1//EN" "http://www.w3.org/Graphics/SVG/1.1/DTD/svg11.dtd">
<svg version="1.1" id="图层_1" xmlns="http://www.w3.org/2000/svg" xmlns:xlink="http://www.w3.org/1999/xlink" x="0px" y="0px"
	 width="70.37px" height="44.75px" viewBox="0 0 70.37 44.75" enable-background="new 0 0 70.37 44.75" xml:space="preserve">
<path fill="#FFFFFF" d="M0.662,11.041c0.643,0.037,1.119,0.496,1.606,0.854c0.483,0.355,1.005,0.66,1.507,0.987
	c0.448,0.292,0.875,0.615,1.324,0.906c0.502,0.325,1.077,0.5,1.588,0.806c0.405,0.243,0.655,0.663,1.072,0.906
	c0.463,0.271,0.981,0.453,1.469,0.674c0.983,0.445,1.993,0.82,2.971,1.268c0.458,0.209,0.869,0.5,1.162,0.914
	c0.348,0.491,0.236,1.179,0.238,1.742c0.001,0.515-0.013,1.026-0.027,1.541c-0.015,0.545,0.273,1.084,0.303,1.641
	c0.065,1.232-0.053,2.484-0.054,3.719c0,1.406,0,2.814,0,4.221c0,1.266-0.002,2.529-0.029,3.793
	c-0.011,0.555,0.243,1.074,0.281,1.625c0.048,0.688-0.041,1.387-0.021,2.078c0.027,1.014,0.247,1.969,0.501,2.947
	c0.172,0.66,0.49,1.131,1.128,1.4c0.423,0.178,0.807,0.422,1.232,0.594c0.446,0.182,1.022,0.102,1.489,0.104
	c1.427,0.006,2.824-0.074,4.237,0.174c1.134,0.197,2.21,0.246,3.362,0.246c0.634,0,1.269-0.008,1.903,0.008
	c0.549,0.014,1.159,0.143,1.701,0c0.209-0.055,0.408-0.127,0.612-0.197c0.364-0.125,0.733,0.051,1.1-0.023
	c0.73-0.146,1.393-0.211,2.139-0.223c0.69-0.01,1.375-0.174,2.065-0.211c0.691-0.037,1.315-0.078,1.995-0.207
	c1.568-0.297,3.214,0.098,4.806-0.113c1.557-0.205,3.131-0.229,4.686-0.432c0.697-0.092,1.383-0.25,2.083-0.326
	c0.819-0.092,1.665,0.006,2.482,0.07c1.484,0.117,2.979,0.029,4.451,0.217c0.656,0.082,1.312,0.184,1.969,0.256
	c0.84,0.094,1.692,0.033,2.524,0.182c1.56,0.275,3.169,0.131,4.744,0.125c0.128-0.002,0.178-0.119,0.152-0.215
	c0.768,0.02,1.607,0.066,2.304-0.266c0.677-0.322,1.444-0.83,1.551-1.623c0.051-0.373-0.023-0.766-0.036-1.139
	c-0.021-0.613,0-1.229,0-1.842c0-1.184,0.099-2.369,0.082-3.553c-0.006-0.443-0.098-0.861-0.203-1.289
	c-0.155-0.633-0.138-1.311-0.13-1.959c0.015-1.156,0.031-2.305-0.001-3.461c-0.009-0.307,0.28-0.551,0.304-0.871
	c0.039-0.506-0.014-1.004-0.046-1.508c-0.079-1.24-0.082-2.574,0.126-3.797c0.175-1.021,0.049-2.071,0.071-3.102
	c0.025-1.194,0.39-2.374,0.469-3.571c0.08-1.215-0.014-2.471-0.014-3.69c0.001-1.342-0.012-2.669-0.123-4.008
	c-0.169-2.05,0.39-4.445-0.979-6.174c-0.532-0.67-1.318-0.687-2.101-0.638c-1.327,0.084-2.674,0.022-4.003,0.022
	c-2.645,0-5.29,0.021-7.936,0.011c-0.512-0.001-1.068-0.072-1.575,0.01c-0.636,0.102-1.227,0.195-1.876,0.196
	c-1.204,0.002-2.43-0.068-3.624,0.094c-2.374,0.323-4.847,0.125-7.252,0.182c-1.227,0.029-2.413-0.158-3.627-0.304
	c-1.33-0.161-2.658-0.188-3.996-0.188c-2.716,0-5.435-0.035-8.15,0.004c-1.176,0.017-2.339,0.215-3.518,0.215
	c-1.381,0-2.762,0.004-4.144,0c-1.676-0.006-3.299,0.195-3.562,2.122c-0.138,1.015-0.04,2.087-0.041,3.108
	c-0.002,1.355-0.065,2.712-0.021,4.066c0.034,1.036,0.351,2.02,0.234,3.064c-0.88-0.355-1.931-0.339-2.843-0.576
	c-1.2-0.313-2.289-0.817-3.526-1.014c-0.408-0.065-0.755-0.235-1.175-0.257c-0.481-0.023-0.687,0.051-1.197-0.199
	c-0.232-0.115-0.44-0.299-0.69-0.378c-1.121-0.353-2.353-0.06-3.504-0.067C0.448,10.71,0.452,11.029,0.662,11.041z M4.258,11.188
	c0.323,0.159,0.618,0.418,0.989,0.467c0.577,0.077,1.11,0.031,1.673,0.223c0.485,0.165,1.034,0.181,1.532,0.314
	c0.561,0.151,1.107,0.369,1.653,0.565c0.571,0.205,1.146,0.333,1.744,0.436c0.604,0.104,1.245,0.109,1.803,0.387
	c0.086,0.043,0.223,0.013,0.242-0.099c0.172-1.047-0.057-2.006-0.186-3.034c-0.167-1.324,0.005-2.727,0.005-4.058
	c0-1.166-0.1-2.381,0.057-3.538c0.207-1.518,1.672-1.676,2.94-1.683c1.259-0.006,2.518,0.002,3.777,0.002
	c1.3,0,2.572-0.123,3.868-0.204c2.685-0.166,5.425-0.016,8.116-0.016c1.249,0,2.487,0.008,3.732,0.124
	c1.313,0.122,2.589,0.372,3.911,0.373c1.204,0.001,2.408-0.057,3.614-0.057c1.058,0,2.166,0.15,3.213,0.005
	c1.252-0.173,2.439-0.225,3.704-0.225c1.282,0,2.514-0.219,3.789-0.209c2.644,0.019,5.287-0.01,7.931-0.01h3.529
	c0.438,0,0.874-0.032,1.313-0.048c0.84-0.031,1.316,0.439,1.712,1.102c0.629,1.056,0.436,2.391,0.423,3.56
	c-0.011,1.127,0.148,2.252,0.206,3.377c0.057,1.131,0.015,2.273,0.014,3.405c0,1.181,0.104,2.401-0.083,3.569
	c-0.146,0.913-0.327,1.84-0.372,2.765c-0.054,1.094,0.084,2.17-0.102,3.256c-0.162,0.955-0.102,1.91-0.102,2.873
	c0,0.996,0.201,1.943-0.209,2.867c-0.094,0.213-0.037,0.506-0.021,0.729c0.038,0.52,0.011,1.047,0.01,1.566
	c0,0.977-0.109,1.967,0.021,2.938c0.143,1.063,0.304,2,0.24,3.08c-0.062,1.051-0.042,2.102-0.042,3.15
	c0,0.447-0.01,0.893,0.022,1.338c0.056,0.791-0.123,1.221-0.764,1.703c-0.897,0.676-1.985,0.582-3.044,0.574
	c-0.133-0.002-0.182,0.125-0.15,0.221c-1.179,0.01-2.357,0.045-3.536,0.002c-0.588-0.02-1.156-0.197-1.746-0.223
	c-0.747-0.031-1.467-0.043-2.21-0.166c-1.038-0.172-2.096-0.314-3.149-0.285c-1.338,0.035-2.66-0.123-3.993-0.191
	c-1.242-0.064-2.401,0.217-3.623,0.377c-1.253,0.164-2.536,0.193-3.795,0.318c-1.239,0.121-2.394,0.195-3.643,0.133
	c-1.274-0.066-2.484,0.227-3.751,0.262c-0.604,0.018-1.197,0.121-1.795,0.195c-0.52,0.066-1.045-0.012-1.565,0.053
	c-0.51,0.066-0.948,0.225-1.476,0.172c-0.565-0.055-1.09,0.262-1.657,0.285c-1.215,0.051-2.463-0.059-3.682-0.057
	c-1.298,0-2.52-0.268-3.802-0.41c-1.24-0.137-2.534-0.002-3.781-0.018c-1.068-0.012-2.635-0.742-2.893-1.85
	c-0.269-1.154-0.489-2.234-0.5-3.428c-0.005-0.604,0.053-1.201,0.011-1.805c-0.045-0.658-0.273-1.232-0.239-1.914
	c0.162-3.197-0.083-6.416,0.042-9.617c0.028-0.711,0.041-1.418-0.022-2.129c-0.021-0.232-0.113-0.447-0.192-0.664
	c-0.121-0.334-0.053-0.7-0.039-1.042c0.042-1.062,0.195-2.265-0.546-3.117c-0.609-0.701-1.654-0.963-2.491-1.26
	c-0.688-0.244-1.323-0.635-1.992-0.927c-0.718-0.312-1.25-0.64-1.81-1.182c-0.369-0.357-0.919-0.518-1.375-0.729
	c-0.637-0.296-1.195-0.772-1.776-1.162c-0.628-0.421-1.276-0.808-1.88-1.266C1.896,11.207,1.73,11.09,1.56,10.993
	C2.481,10.914,3.467,10.798,4.258,11.188z"/>
</svg>
