<?xml version="1.0" encoding="utf-8"?>
<!-- Generator: Adobe Illustrator 16.0.0, SVG Export Plug-In . SVG Version: 6.00 Build 0)  -->
<!DOCTYPE svg PUBLIC "-//W3C//DTD SVG 1.1//EN" "http://www.w3.org/Graphics/SVG/1.1/DTD/svg11.dtd">
<svg version="1.1" id="图层_1" xmlns="http://www.w3.org/2000/svg" xmlns:xlink="http://www.w3.org/1999/xlink" x="0px" y="0px"
	 width="104.352px" height="43.997px" viewBox="0 0 104.352 43.997" enable-background="new 0 0 104.352 43.997"
	 xml:space="preserve">
<path fill="#FFFFFF" d="M6.401,26.223c-0.854,0.056-1.646,0.257-2.512,0.256c0.047-1.394,0.104-2.78,0.104-4.135
	c0-1.12-0.001-2.239,0-3.359c0.633-0.051,1.266-0.1,1.901-0.113c0.49-0.011,0.491-0.771,0-0.76
	c-0.636,0.014-1.269,0.063-1.901,0.112c0-2.522,0.002-5.046-0.001-7.569c-0.001-0.206-0.015-0.411-0.022-0.617
	c0.843,0.064,1.749,0.146,2.447-0.403C6.802,9.33,6.26,8.796,5.879,9.096c-0.47,0.37-1.311,0.252-1.937,0.185
	C3.861,7.965,3.711,6.654,3.754,5.339C3.767,4.958,3.21,1.861,3.613,1.887C3.909,1.905,4.022,1.635,3.96,1.411
	c0.761,0.022,1.443-0.302,2.188-0.285c0.49,0.011,0.489-0.749,0-0.761c-0.359-0.008-0.65,0.043-0.999,0.143
	C4.516,0.688,3.89,0.651,3.24,0.626C2.438,0.595,1.697,0.555,0.973,0.938c-0.323,0.171-0.188,0.74,0.192,0.708
	c0.056-0.004,0.11-0.009,0.166-0.014c0.122-0.01,0.213-0.065,0.274-0.143c0.422-0.147,0.902-0.159,1.378-0.137
	C2.145,2.208,2.996,5.266,2.975,5.926C2.938,7.026,3.014,8.138,3.093,9.251C2.53,9.271,1.968,9.325,1.41,9.263
	C1.329,9.007,1.018,8.833,0.81,9.096c-0.056,0.07-0.111,0.141-0.167,0.211C0.474,9.519,0.507,9.866,0.81,9.941
	c0.768,0.191,1.552,0.103,2.335,0.08c0.047,0.708,0.088,1.415,0.088,2.12c0.002,2.046,0.001,4.093,0,6.139
	c-0.548,0.042-1.097,0.078-1.647,0.084c-0.49,0.005-0.49,0.766,0,0.761c0.55-0.006,1.099-0.043,1.646-0.084
	c-0.002,2.479-0.021,4.958-0.044,7.437c-0.787-0.009-1.576-0.001-2.363-0.001c-0.49,0-0.49,0.761,0,0.761
	c0.786-0.001,1.571-0.001,2.356,0.005c-0.013,1.432-0.026,2.862-0.039,4.293c-0.01,1.178,0.078,2.36,0.189,3.544
	c-0.742,0.057-1.5,0.024-2.243,0.019c-0.004,0-0.006-0.002-0.01-0.002H0.911c-0.49,0-0.49,0.761,0,0.761
	c0.829-0.001,1.663,0.021,2.491-0.029c0.191,1.919,0.405,3.836,0.338,5.732c-0.018,0.491,0.743,0.489,0.76,0
	c0.045-1.248-0.242-2.325-0.271-3.544c-0.018-0.753,0.017-1.508,0.02-2.262c0.547-0.067,1.091-0.147,1.646-0.151
	c0.49-0.003,0.49-0.764,0-0.761c-0.558,0.004-1.106,0.072-1.657,0.142c-0.016-0.359-0.045-0.718-0.101-1.075
	c-0.341-2.159-0.333-4.417-0.269-6.669c0.887-0.003,1.654-0.199,2.533-0.256C6.889,26.952,6.892,26.191,6.401,26.223z"/>
<path fill="#FFFFFF" d="M103.494,42.447c-3.055,0-6.089,0.161-9.131,0.224c-0.05-0.125-0.16-0.224-0.336-0.224h-0.166
	c-0.001,0-0.002,0-0.003,0c-4.152,0.002-8.308,0.05-12.46-0.011c-1.628-0.023-3.192-0.271-4.831-0.229
	c-1.802,0.047-3.529-0.269-5.331-0.267c-4.139,0.004-8.277-0.02-12.415-0.001c-1.854,0.009-3.775-0.228-5.645-0.267
	c-1.965-0.041-3.91-0.24-5.881-0.239c-3.777,0-7.521,0.143-11.29,0.253c-1.879,0.056-3.763-0.03-5.643,0.018
	c-1.976,0.05-3.893,0.592-5.875,0.597c-3.907,0.012-7.979,0.148-11.829-0.525c-1.798-0.314-3.778-0.085-5.599-0.086
	c-1.182,0-2.209,0.313-3.36,0.251c-0.494,0-0.487,0.734,0,0.761h0.166c0.015,0,0.024-0.007,0.038-0.008
	c0.878-0.004,1.675-0.302,2.497-0.246c2.251,0.153,4.512-0.208,6.751,0.184c3.521,0.616,7.127,0.264,10.688,0.414
	c1.771,0.075,3.438-0.23,5.185-0.462c2.063-0.274,4.195-0.135,6.272-0.135c3.992-0.002,7.994-0.255,11.998-0.255
	c3.65,0,7.303,0.268,10.935,0.473c4.059,0.23,8.181,0.035,12.246,0.035c1.68,0,3.308,0.334,4.976,0.321
	c1.795-0.014,3.486-0.013,5.278,0.146c3.699,0.326,7.522,0.13,11.27,0.062c0.048,0.129,0.16,0.231,0.34,0.231
	c3.724-0.002,7.423-0.254,11.154-0.253C103.984,43.208,103.984,42.447,103.494,42.447z"/>
<path fill="#FFFFFF" d="M100.214,3.378c-0.538-0.641-1.189-0.733-1.993-0.73c-0.735,0.004-1.607-0.12-2.116,0.551
	c-0.137,0.181-0.255,0.386-0.351,0.604c-0.065,0.063-0.125,0.126-0.169,0.191c-0.239,0.351-0.35,0.714-0.358,1.069
	c-1.686,0.4-3.291,1.633-4.829,2.294c-2.36,1.017-4.631,2.223-6.735,3.672c-0.455,0.313-0.957,0.313-1.422,0.514
	c-0.248-0.128-0.526-0.222-0.811-0.28c-0.334-0.142-0.685-0.258-0.998-0.376c-0.722-0.271-1.62-0.315-2.16,0.322
	c-0.201,0.237-0.34,0.486-0.428,0.738c-2.22-0.52-4.639-2.019-6.4-3.404c-0.075-0.06-0.146-0.115-0.221-0.174
	c0.099-0.749-0.381-1.66-0.931-2.15c-0.182-0.316-0.413-0.602-0.696-0.828c-0.052-0.114-0.156-0.203-0.318-0.207
	c-0.092-0.052-0.179-0.111-0.279-0.148c-0.483-0.179-1.343-0.235-1.774,0.108c-0.234,0.186-0.353,0.499-0.428,0.827
	c-0.226,0.343-0.363,0.761-0.412,1.124c-2.152,0.502-4.23,1.297-6.404,1.706c-0.708,0.134-1.34,0.282-1.915,0.488
	c-0.377-0.205-0.809-0.344-1.212-0.451c-0.061-0.063-0.145-0.105-0.257-0.106c-0.056-0.001-0.108,0-0.162,0
	c-0.002,0-0.004-0.001-0.005-0.001c-0.418-0.102-0.831-0.009-1.212,0.179c-0.25,0.101-0.489,0.255-0.733,0.493
	c-0.015,0.014-0.027,0.03-0.042,0.046c-0.174,0.16-0.33,0.331-0.462,0.499c-0.721,0.919-0.871,2.76,0.058,3.535
	c-0.971,1.596-1.897,3.239-2.847,4.824c-1.197,2.001-2.508,3.94-3.816,5.882c-1.456,2.16-2.693,4.428-3.963,6.711
	c-0.156,0.281-0.307,0.598-0.435,0.91c-0.144-0.005-0.287-0.002-0.426,0.014c-0.051-0.013-0.1-0.024-0.146-0.029
	c-0.381-0.039-0.736-0.034-1.107,0.061c-0.126,0.032-0.235,0.087-0.338,0.15c-0.083-0.072-0.165-0.144-0.243-0.212
	c-0.721-0.624-1.659-1.157-2.449-1.698c-1.087-0.745-1.947-1.725-3.05-2.455c-0.528-0.35-0.987-0.735-1.499-1.117
	c-0.685-0.51-1.455-0.73-2.118-1.295c-0.781-0.665-1.79-1.05-2.455-1.824c-0.294-0.341-0.699-0.644-1.111-0.925
	c-0.198-0.803-0.824-1.504-1.677-1.598c-0.187-0.02-0.385-0.022-0.586-0.01c-0.379-0.076-0.76-0.081-1.113,0.002
	c-0.307,0.035-0.596,0.128-0.822,0.353c-0.514,0.507-0.697,1.214-0.626,1.921c0.002,0.023,0.014,0.041,0.017,0.064
	c-1.461,1.628-2.751,3.423-4.253,5.019c-1.856,1.972-4.172,3.629-6.194,5.434c-0.723,0.645-1.652,1.249-1.928,2.219
	c-0.135,0.473,0.6,0.673,0.733,0.202c0.399-1.404,2.858-2.886,3.912-3.755c1.369-1.13,2.731-2.334,4.014-3.562
	c0.479-0.458,0.851-0.975,1.213-1.521c0.534-0.81,1.415-1.338,2.035-2.081c0.3-0.359,0.555-0.741,0.823-1.117
	c0.653,0.81,2.018,0.993,3.005,0.946c0.51-0.024,0.99-0.168,1.184-0.667c0.057-0.145,0.093-0.328,0.114-0.528
	c0.05-0.08,0.096-0.163,0.129-0.261c0.437,0.336,0.83,0.695,1.25,1.079c0.512,0.467,1.251,0.669,1.8,1.147
	c0.444,0.39,0.854,0.652,1.402,0.89c0.848,0.365,1.584,1.131,2.368,1.643c1.572,1.027,2.992,2.406,4.521,3.526
	c0.369,0.271,0.715,0.553,1.061,0.82c-0.113,0.239-0.182,0.504-0.213,0.759c-0.171,1.451-0.217,3.313,1.676,3.304
	c0.71-0.003,1.485-0.22,2.097-0.628c0.595-0.161,1.135-0.496,1.508-1.026c0.843-1.195,0.112-2.271-0.935-2.83
	c0.023-0.302-0.365-0.585-0.643-0.311c-0.015,0.015-0.031,0.02-0.046,0.031c-0.025-0.008-0.051-0.013-0.077-0.02
	c0.428-0.991,0.994-1.919,1.596-2.828c0.746-1.128,1.12-2.413,1.913-3.517c1.727-2.404,3.347-4.867,4.863-7.4
	c0.706-1.179,1.487-2.306,2.179-3.493c0.163-0.279,0.32-0.573,0.478-0.871c0.056,0.008,0.107,0.021,0.167,0.024
	c0.61,0.036,1.32-0.129,1.938-0.447c0.459,0.03,0.884,0.018,1.203-0.026c0.789-0.108,1.063-0.754,1.131-1.464
	c0.042-0.446,0.06-0.959,0.007-1.403c-0.037-0.321-0.297-0.369-0.454-0.591C58.8,9.903,58.797,9.9,58.795,9.897
	c1.289-0.309,2.618-0.415,3.878-0.798c0.67-0.204,1.226-0.568,1.934-0.701c0.617-0.116,1.211-0.264,1.804-0.439
	c0.215,1.119,1.11,2.087,2.384,1.794c0.158-0.036,0.305-0.091,0.447-0.151c0.508-0.008,0.994-0.114,1.35-0.312
	c0.115-0.064,0.208-0.141,0.291-0.223c0.156,0.123,0.313,0.246,0.473,0.365c1.217,0.915,2.286,1.486,3.642,2.118
	c0.847,0.395,1.734,0.815,2.639,1.096c-0.14,0.232-0.192,0.511-0.115,0.814c0.363,1.433,1.805,2.039,3.164,1.764
	c0.266-0.054,0.505-0.17,0.729-0.309c0.783-0.303,1.441-0.928,1.654-1.761c0.099-0.389,0.042-0.714-0.116-0.983
	c0.178-0.08,0.359-0.154,0.555-0.209c0.499-0.142,0.958-0.564,1.358-0.874c0.556-0.43,1.17-0.618,1.769-0.939
	c1.374-0.737,2.741-1.457,4.149-2.135c1.305-0.629,3.02-1.83,4.571-2.206c0.28,0.769,0.99,1.422,1.809,1.724
	c1.612,0.593,3.209-0.451,3.628-2.072C100.98,4.723,100.688,3.942,100.214,3.378z"/>
</svg>
