<?xml version="1.0" encoding="utf-8"?>
<!-- Generator: Adobe Illustrator 16.0.0, SVG Export Plug-In . SVG Version: 6.00 Build 0)  -->
<!DOCTYPE svg PUBLIC "-//W3C//DTD SVG 1.1//EN" "http://www.w3.org/Graphics/SVG/1.1/DTD/svg11.dtd">
<svg version="1.1" id="图层_1" xmlns="http://www.w3.org/2000/svg" xmlns:xlink="http://www.w3.org/1999/xlink" x="0px" y="0px"
	 width="70.37px" height="44.5px" viewBox="0 0 70.37 44.5" enable-background="new 0 0 70.37 44.5" xml:space="preserve">
<path fill="#FFFFFF" d="M69.556,33.57c-0.639-0.036-1.113-0.492-1.598-0.849c-0.48-0.354-1-0.657-1.5-0.983
	c-0.446-0.29-0.871-0.612-1.317-0.901c-0.499-0.323-1.071-0.497-1.58-0.802c-0.403-0.242-0.652-0.659-1.066-0.901
	c-0.461-0.27-0.977-0.451-1.462-0.67c-0.977-0.443-1.982-0.817-2.956-1.262c-0.455-0.208-0.864-0.498-1.155-0.909
	c-0.347-0.487-0.235-1.172-0.236-1.733c-0.002-0.512,0.012-1.021,0.026-1.533c0.015-0.541-0.272-1.079-0.302-1.632
	c-0.064-1.226,0.053-2.471,0.054-3.699c0-1.4,0-2.8,0.001-4.2c0-1.258,0.001-2.516,0.027-3.774c0.013-0.551-0.24-1.067-0.279-1.617
	c-0.047-0.684,0.041-1.38,0.022-2.066c-0.028-1.009-0.245-1.96-0.499-2.932c-0.171-0.658-0.487-1.126-1.123-1.394
	c-0.42-0.177-0.803-0.42-1.225-0.592c-0.444-0.181-1.018-0.1-1.482-0.102c-1.42-0.007-2.81,0.074-4.215-0.173
	C46.562,0.647,45.491,0.6,44.345,0.6c-0.631,0-1.263,0.007-1.894-0.008c-0.546-0.013-1.153-0.141-1.692,0
	c-0.208,0.055-0.405,0.127-0.608,0.196c-0.362,0.124-0.729-0.051-1.094,0.022c-0.728,0.146-1.386,0.211-2.128,0.222
	c-0.687,0.011-1.367,0.174-2.055,0.21s-1.308,0.077-1.985,0.206c-1.56,0.296-3.197-0.097-4.781,0.113
	c-1.548,0.204-3.115,0.228-4.662,0.43c-0.694,0.091-1.376,0.248-2.073,0.325c-0.814,0.09-1.657-0.007-2.47-0.071
	c-1.477-0.117-2.963-0.029-4.429-0.214c-0.652-0.083-1.305-0.184-1.958-0.256c-0.836-0.093-1.684-0.032-2.512-0.179
	c-1.55-0.275-3.152-0.13-4.72-0.124c-0.127,0-0.176,0.118-0.15,0.212c-0.764-0.02-1.6-0.066-2.293,0.265
	C2.168,2.271,1.405,2.774,1.298,3.563c-0.05,0.372,0.023,0.761,0.036,1.134c0.021,0.609,0,1.222,0,1.831
	c0,1.179-0.097,2.359-0.081,3.536c0.006,0.44,0.097,0.856,0.202,1.282c0.155,0.629,0.138,1.305,0.129,1.948
	c-0.014,1.15-0.031,2.293,0.001,3.443c0.009,0.305-0.278,0.547-0.303,0.868c-0.038,0.502,0.014,0.998,0.046,1.499
	c0.079,1.235,0.082,2.562-0.125,3.779c-0.173,1.016-0.048,2.062-0.071,3.087c-0.026,1.188-0.388,2.361-0.466,3.552
	c-0.08,1.21,0.013,2.459,0.013,3.672c0,1.336,0.012,2.656,0.122,3.988c0.169,2.039-0.388,4.423,0.975,6.143
	c0.529,0.667,1.311,0.684,2.089,0.635c1.32-0.084,2.66-0.022,3.982-0.022c2.632,0,5.264-0.021,7.896-0.011
	c0.509,0.001,1.064,0.071,1.567-0.01c0.633-0.102,1.221-0.194,1.867-0.195c1.197-0.002,2.417,0.068,3.605-0.093
	c2.362-0.321,4.822-0.125,7.214-0.182c1.221-0.027,2.401,0.157,3.609,0.304c1.323,0.16,2.644,0.187,3.976,0.187
	c2.702,0,5.407,0.035,8.108-0.004c1.171-0.018,2.328-0.215,3.501-0.215c1.374,0,2.748-0.004,4.122,0.002
	c1.668,0.006,3.283-0.195,3.544-2.112c0.137-1.009,0.04-2.076,0.041-3.093c0.002-1.348,0.065-2.697,0.021-4.046
	c-0.033-1.03-0.349-2.01-0.232-3.049c0.876,0.353,1.922,0.338,2.828,0.573c1.194,0.312,2.276,0.813,3.508,1.009
	c0.405,0.064,0.751,0.234,1.169,0.255c0.479,0.024,0.684-0.05,1.19,0.199c0.232,0.114,0.438,0.297,0.687,0.376
	c1.116,0.352,2.342,0.059,3.486,0.066C69.769,33.9,69.765,33.583,69.556,33.57z M65.979,33.426
	c-0.323-0.158-0.615-0.417-0.984-0.466c-0.574-0.075-1.105-0.031-1.665-0.221c-0.483-0.164-1.028-0.18-1.524-0.313
	c-0.558-0.15-1.102-0.367-1.646-0.562c-0.567-0.204-1.141-0.332-1.734-0.435c-0.601-0.103-1.238-0.108-1.793-0.385
	c-0.086-0.043-0.223-0.014-0.24,0.098c-0.172,1.042,0.056,1.996,0.185,3.019c0.166,1.317-0.005,2.712-0.006,4.038
	c0,1.159,0.101,2.368-0.057,3.52c-0.205,1.511-1.664,1.667-2.925,1.675c-1.253,0.006-2.505-0.003-3.758-0.003
	c-1.294,0-2.56,0.122-3.849,0.202c-2.672,0.166-5.397,0.017-8.074,0.017c-1.242,0-2.475-0.008-3.713-0.123
	c-1.306-0.121-2.576-0.37-3.891-0.371c-1.199-0.001-2.397,0.057-3.596,0.057c-1.052,0-2.156-0.148-3.198-0.005
	c-1.245,0.172-2.427,0.224-3.685,0.224c-1.275,0.001-2.501,0.219-3.77,0.209c-2.63-0.02-5.261,0.01-7.891,0.01H4.655
	c-0.437,0-0.87,0.031-1.306,0.048c-0.835,0.031-1.31-0.438-1.703-1.097c-0.626-1.05-0.433-2.379-0.421-3.542
	c0.012-1.121-0.147-2.241-0.204-3.359c-0.058-1.125-0.015-2.262-0.015-3.388c0-1.175-0.103-2.389,0.083-3.552
	c0.145-0.908,0.326-1.83,0.371-2.75c0.053-1.089-0.084-2.159,0.1-3.241c0.162-0.949,0.102-1.899,0.102-2.858
	c0-0.99-0.2-1.933,0.208-2.852c0.094-0.212,0.037-0.502,0.021-0.725c-0.038-0.516-0.01-1.042-0.01-1.56
	c0.001-0.97,0.109-1.957-0.021-2.923C1.716,10.755,1.556,9.822,1.62,8.747c0.062-1.043,0.042-2.089,0.042-3.134
	c0-0.444,0.01-0.887-0.022-1.33C1.583,3.496,1.762,3.068,2.399,2.588c0.893-0.673,1.976-0.58,3.029-0.571
	C5.56,2.019,5.609,1.892,5.577,1.796C6.75,1.787,7.922,1.751,9.095,1.794c0.585,0.021,1.151,0.198,1.737,0.223
	c0.744,0.031,1.46,0.042,2.198,0.165c1.034,0.171,2.085,0.312,3.134,0.285c1.331-0.036,2.647,0.122,3.974,0.19
	c1.235,0.064,2.389-0.216,3.604-0.375c1.246-0.163,2.523-0.193,3.775-0.316c1.233-0.122,2.382-0.196,3.624-0.132
	c1.269,0.065,2.471-0.227,3.732-0.262c0.601-0.017,1.191-0.119,1.786-0.194c0.517-0.065,1.04,0.012,1.558-0.053
	c0.507-0.064,0.943-0.223,1.468-0.171c0.563,0.056,1.084-0.259,1.648-0.283c1.208-0.05,2.45,0.058,3.664,0.057
	c1.29,0,2.507,0.266,3.781,0.407c1.234,0.136,2.521,0.002,3.763,0.017c1.063,0.013,2.622,0.739,2.878,1.842
	c0.267,1.147,0.486,2.223,0.497,3.41c0.005,0.601-0.053,1.194-0.012,1.795c0.046,0.655,0.272,1.227,0.238,1.905
	c-0.161,3.182,0.083,6.383-0.041,9.568c-0.027,0.708-0.041,1.412,0.021,2.118c0.021,0.231,0.112,0.447,0.19,0.662
	c0.12,0.33,0.053,0.695,0.039,1.036c-0.042,1.056-0.194,2.254,0.543,3.102c0.606,0.697,1.646,0.958,2.479,1.254
	c0.685,0.242,1.317,0.632,1.982,0.921c0.714,0.311,1.244,0.637,1.801,1.177c0.367,0.355,0.915,0.516,1.368,0.726
	c0.634,0.295,1.188,0.769,1.767,1.156c0.625,0.42,1.27,0.804,1.87,1.26c0.166,0.125,0.33,0.24,0.499,0.337
	C67.746,33.697,66.765,33.813,65.979,33.426z"/>
</svg>
