<?xml version="1.0" encoding="utf-8"?>
<!-- Generator: Adobe Illustrator 16.0.0, SVG Export Plug-In . SVG Version: 6.00 Build 0)  -->
<!DOCTYPE svg PUBLIC "-//W3C//DTD SVG 1.1//EN" "http://www.w3.org/Graphics/SVG/1.1/DTD/svg11.dtd">
<svg version="1.1" id="图层_1" xmlns="http://www.w3.org/2000/svg" xmlns:xlink="http://www.w3.org/1999/xlink" x="0px" y="0px"
	 width="13.457px" height="14.504px" viewBox="0 0 13.457 14.504" enable-background="new 0 0 13.457 14.504" xml:space="preserve">
<path fill="#FFFFFF" d="M12.923,5.653c0.291-0.3-0.057-0.731-0.379-0.634c-0.246-0.681-0.59-1.329-1.037-1.911
	c-0.119-0.157-0.25-0.302-0.393-0.436c0.102-0.058,0.205-0.113,0.309-0.153c0.453-0.173,0.258-0.909-0.201-0.733
	c-0.275,0.105-0.498,0.258-0.707,0.427c-0.93-0.599-2.092-0.857-3.172-0.821C7.288,1.394,7.218,1.389,7.157,1.39
	c-0.012-0.001-0.023,0-0.035,0C6.775,1.388,6.383,1.369,5.958,1.352c0.331-0.158,0.284-0.747-0.149-0.721
	c-1.657,0.1-3.27,1.09-4.265,2.425c-0.879,1.177-1.085,2.738-1.021,4.25C0.516,7.33,0.503,7.352,0.499,7.375
	C0.474,7.482,0.497,7.574,0.542,7.648c0.03,0.449,0.079,0.893,0.143,1.315c0.083,0.549,0.221,1.077,0.416,1.567
	c-0.164,0.236,0.012,0.463,0.24,0.517c0.396,0.735,0.978,1.321,1.802,1.653c-0.223,0.193-0.094,0.684,0.26,0.672
	c0.042-0.001,0.084-0.002,0.125-0.003c0.086-0.003,0.151-0.034,0.208-0.074c0.142-0.036,0.284-0.071,0.423-0.132
	c0.662,0.37,1.244,0.798,2.107,0.822c1.103,0.031,2.029-0.165,3.039-0.6c3.104-1.336,4.189-4.654,3.475-7.596
	C12.825,5.744,12.876,5.701,12.923,5.653z M1.451,4.682c0.12-0.687,0.611-1.342,1.252-1.887c0.163,0.14,0.436,0.166,0.582-0.071
	C3.749,1.977,5.227,2.06,6.198,2.119C5.222,2.948,4.074,3.617,3.1,4.43C2.588,4.857,1.865,5.4,1.302,6.017
	C1.338,5.5,1.391,5.025,1.451,4.682z M1.485,9.21C1.34,8.797,1.277,8.17,1.263,7.496c0.328-1.148,2.145-2.367,3.002-2.994
	C5.26,3.774,6.392,3.059,7.267,2.174C8.099,2.237,9.112,2.411,9.89,2.777C9.81,2.854,9.731,2.931,9.647,3.008
	c-1.074,0.97-2.227,1.762-3.342,2.667c-1.599,1.296-3.268,2.569-4.62,4.129C1.61,9.584,1.542,9.376,1.485,9.21z M1.996,10.613
	C3.243,9.068,4.88,7.805,6.409,6.565c0.741-0.6,1.557-1.067,2.299-1.665c0.564-0.455,1.145-1.202,1.775-1.761
	c0.023,0.02,0.053,0.036,0.076,0.056c0.75,0.642,1.234,1.402,1.504,2.213c-1.26,1.196-2.746,2.116-4.053,3.273
	c-0.99,0.875-2.43,2.837-3.837,3.623c-0.035-0.018-0.071-0.035-0.107-0.055c-0.291-0.149-0.651-0.234-0.961-0.336
	C2.607,11.75,2.257,11.203,1.996,10.613z M9.435,12.443c-1.551,1.086-3,0.867-4.469,0.235c1.017-0.757,1.915-1.95,2.678-2.69
	c1.436-1.394,3.143-2.394,4.619-3.708C12.587,8.574,11.38,11.078,9.435,12.443z"/>
</svg>
