<?xml version="1.0" encoding="utf-8"?>
<!-- Generator: Adobe Illustrator 16.0.0, SVG Export Plug-In . SVG Version: 6.00 Build 0)  -->
<!DOCTYPE svg PUBLIC "-//W3C//DTD SVG 1.1//EN" "http://www.w3.org/Graphics/SVG/1.1/DTD/svg11.dtd">
<svg version="1.1" id="图层_1" xmlns="http://www.w3.org/2000/svg" xmlns:xlink="http://www.w3.org/1999/xlink" x="0px" y="0px"
	 width="18.534px" height="35.858px" viewBox="0 0 18.534 35.858" enable-background="new 0 0 18.534 35.858" xml:space="preserve">
<path fill="#FFFFFF" d="M17.455,12.776c-2.447,2.655-5.341,4.767-7.461,7.763c-0.346,0.489-0.866,0.567-1.486,0.384
	c0-0.072-0.001-0.146,0-0.218c0.011-0.546-0.587-5.767-0.574-6.233c0.267-0.006,0.543-0.026,0.838-0.074
	c1.955-0.313,2.931-1.993,3.837-3.538c1.026-1.752,1.688-3.457,1.186-5.377c0.013-0.103-0.021-0.197-0.085-0.271
	c-0.04-0.127-0.069-0.252-0.12-0.382c-0.286-0.727-0.816-1.353-1.338-1.918c-0.76-0.823-1.538-0.709-2.537-1.021
	C9.171,1.724,8.619,1.559,8.068,1.437C8.066,1.428,8.065,1.419,8.063,1.41c0.106-0.082,0.175-0.214,0.141-0.381
	C8.189,0.959,8.174,0.889,8.16,0.818C8.124,0.644,7.955,0.554,7.793,0.54C6.231,0.399,4.202,1.447,3.188,2.609
	C1.898,4.087,1.889,6.383,1.879,8.222c-0.011,2.142,0.122,3.124,1.881,4.501c1.172,0.917,2.172,1.549,3.421,1.709
	c-0.12,1.003,0.151,2.023,0.314,3.017c0.165,1.001,0.278,2.094,0.319,3.189c-2.19-1.137-5.154-4.499-6.502-5.465
	c-0.054-0.117-0.158-0.214-0.32-0.227l-0.168-0.014c-0.376-0.029-0.521,0.541-0.192,0.709c1.922,0.982,2.925,2.861,4.578,4.136
	c0.623,0.48,1.626,1.252,2.608,1.751c-0.001,0.861-0.037,1.715-0.155,2.511c-0.082,0.555-1.054,1.451-1.435,1.996
	c-0.457,0.653-0.712,1.561-0.977,2.303c-0.285,0.799-0.543,1.603-0.768,2.421C4.352,31.243,4.437,32.2,4.019,32.55
	c-0.377,0.313,0.164,0.849,0.538,0.537c0.563-0.469,0.534-1.464,0.661-2.126c0.373-1.931,1.205-3.622,2.272-5.207
	c0.147,0.97,0.731,2.007,1.054,2.792c0.515,1.255,1.026,2.517,1.556,3.766c0.4,0.942,0.646,2.005,1.148,2.894
	c0.175,0.309,0.584,0.202,0.695-0.091c0.021-0.056,0.042-0.111,0.063-0.167c0.09-0.234-0.059-0.398-0.248-0.444
	c-0.215-0.512-0.307-1.052-0.5-1.576c-0.342-0.93-0.842-1.844-1.201-2.783c-0.377-0.987-0.852-1.931-1.216-2.923
	c-0.217-0.593-0.947-1.899-0.481-2.499c0.136-0.175,0.094-0.38-0.016-0.518c0.215-0.749,0.203-1.569,0.181-2.377
	C8.832,21.935,9.131,22.01,9.4,22.01c0.367,0,0.673-0.364,0.896-0.601c0.809-0.856,1.456-1.921,2.23-2.82
	c1.664-1.932,3.745-3.409,5.465-5.275C18.324,12.954,17.788,12.415,17.455,12.776z M3.063,4.45c0.248-0.868,0.778-1.533,1.48-2.037
	c0.106,0.117,0.27,0.172,0.443,0.06c0.393-0.255,0.938-0.386,1.556-0.42C6.151,2.531,5.747,2.984,5.29,3.416
	C4.555,4.111,3.581,4.678,2.849,5.41C2.903,5.09,2.972,4.771,3.063,4.45z M2.64,8.222c0.017-0.56,0.036-1.108,0.077-1.654
	c0.235,0.021,0.39-0.156,0.415-0.349c0.556-0.69,1.529-1.27,2.191-1.807c0.454-0.368,0.869-0.798,1.276-1.215
	c0.22-0.225,0.573-0.812,0.908-1.125c0.567,0.049,1.156,0.163,1.724,0.318C9.205,2.411,9.178,2.429,9.156,2.459
	c-0.991,1.357-2.41,2.786-3.709,3.853C4.517,7.075,3.293,8.048,2.671,9.124C2.645,8.84,2.63,8.545,2.64,8.222z M3.634,11.501
	c-0.422-0.502-0.694-1.036-0.844-1.653c0.154,0.061,0.334,0.032,0.432-0.16c0.681-1.345,2.285-2.408,3.394-3.37
	c1.114-0.966,2.333-2.29,3.196-3.475C9.877,2.754,9.89,2.668,9.875,2.589c0.563,0.195,1.069,0.435,1.491,0.698
	c-0.019,0.02-0.04,0.034-0.056,0.06c-1.082,1.787-2.543,3.261-3.86,4.853c-0.702,0.85-1.719,1.606-2.616,2.224
	C4.42,10.707,3.881,11.044,3.634,11.501z M4.176,12.054c0.021-0.026,0.044-0.049,0.06-0.085c0.298-0.684,1.316-1.05,1.857-1.51
	c0.778-0.662,1.564-1.323,2.217-2.111c1.248-1.51,2.612-2.896,3.651-4.608c0.032,0.032,0.076,0.062,0.106,0.094
	c0.436,0.473,0.723,1.02,0.895,1.605c-1.756,2.875-4.377,5.314-6.916,7.464c-0.128,0.108-0.144,0.241-0.102,0.358
	c-0.447-0.223-0.876-0.498-1.274-0.798C4.49,12.327,4.329,12.19,4.176,12.054z M7.735,13.692c-0.07,0.013-0.14,0.024-0.21,0.037
	c-0.015,0.003-0.025,0.018-0.039,0.022c-0.337-0.04-0.667-0.14-0.993-0.262c0.031-0.015,0.062-0.025,0.091-0.05
	c2.368-2.005,4.796-4.268,6.562-6.882c0.133,2.558-1.522,5.496-3.523,6.727c-0.52,0.319-1.047,0.466-1.57,0.49
	C7.972,13.708,7.865,13.669,7.735,13.692z"/>
</svg>
